<svg xmlns="http://www.w3.org/2000/svg" viewBox="0 0 64 64">
  <rect width="64" height="64" rx="14" fill="#0a1f44"/>
  <circle cx="32" cy="32" r="24" fill="#ffffff"/>
  <path
    d="M44.7 43.3c-3.5 3.2-7.6 4.8-12.4 4.8-5.1 0-9.4-1.6-12.8-4.9-3.5-3.3-5.2-7.4-5.2-12.4 0-4.9 1.7-9 5.2-12.3 3.5-3.3 7.8-5 12.9-5 4.8 0 8.9 1.6 12.3 4.8l-5.3 6.2c-1.9-1.8-4.2-2.7-6.9-2.7-2.7 0-4.9.8-6.6 2.5-1.7 1.7-2.6 3.9-2.6 6.5 0 2.7.9 4.9 2.6 6.6 1.8 1.7 4 2.5 6.7 2.5 2.7 0 5-.9 6.9-2.7z"
    fill="#0a1f44"
  />
  <path d="M45 12h7v7" fill="none" stroke="#30c7ff" stroke-width="4" stroke-linecap="round"/>
  <path d="M12 45h7v7" fill="none" stroke="#30c7ff" stroke-width="4" stroke-linecap="round"/>
</svg>
