<svg xmlns="http://www.w3.org/2000/svg" viewBox="0 0 1897 1897" width="1897" height="1897">
<path fill="#ffffff" fill-rule="evenodd" d="M 809 1717 L 806 1740 L 830 1743 L 838 1737 L 838 1726 L 832 1720 Z
M 1166 1708 L 1156 1701 L 1128 1709 L 1133 1728 L 1139 1729 L 1161 1722 L 1166 1717 Z
M 638 1663 L 622 1666 L 620 1671 L 613 1675 L 604 1696 L 606 1712 L 621 1725 L 631 1726 L 646 1719 L 658 1697 L 657 1676 L 650 1668 Z
M 450 1548 L 441 1547 L 431 1551 L 427 1557 L 423 1557 L 412 1573 L 411 1592 L 425 1607 L 437 1609 L 447 1605 L 466 1584 L 469 1572 L 467 1563 L 459 1553 Z
M 1591 1399 L 1582 1404 L 1568 1424 L 1585 1438 L 1602 1412 L 1600 1404 Z
M 1275 1234 L 1275 1305 L 1300 1305 L 1301 1274 L 1307 1274 L 1312 1278 L 1328 1304 L 1355 1304 L 1342 1282 L 1331 1274 L 1348 1261 L 1349 1247 L 1343 1239 L 1322 1234 Z
M 1300 1248 L 1319 1247 L 1324 1251 L 1324 1257 L 1319 1262 L 1301 1263 Z
M 1189 1235 L 1189 1305 L 1260 1304 L 1259 1289 L 1215 1289 L 1213 1280 L 1215 1275 L 1254 1274 L 1253 1261 L 1215 1262 L 1213 1259 L 1214 1251 L 1217 1249 L 1259 1249 L 1258 1234 Z
M 1095 1235 L 1096 1249 L 1122 1251 L 1123 1305 L 1148 1304 L 1148 1251 L 1175 1249 L 1174 1234 Z
M 1001 1234 L 1002 1283 L 1012 1299 L 1029 1305 L 1048 1306 L 1064 1303 L 1077 1293 L 1082 1277 L 1082 1235 L 1056 1235 L 1057 1280 L 1052 1288 L 1035 1290 L 1027 1282 L 1027 1235 Z
M 913 1304 L 939 1304 L 940 1279 L 964 1278 L 978 1272 L 985 1257 L 979 1241 L 960 1234 L 913 1234 Z
M 939 1249 L 954 1248 L 958 1251 L 960 1259 L 954 1265 L 940 1265 Z
M 800 1235 L 801 1304 L 821 1304 L 822 1254 L 838 1304 L 857 1304 L 872 1253 L 874 1304 L 895 1304 L 894 1234 L 862 1234 L 848 1278 L 843 1270 L 833 1234 Z
M 707 1243 L 698 1257 L 696 1269 L 699 1285 L 711 1299 L 728 1305 L 753 1305 L 765 1301 L 780 1287 L 784 1272 L 783 1260 L 772 1242 L 756 1235 L 736 1233 L 718 1237 Z
M 737 1248 L 753 1252 L 758 1261 L 757 1281 L 753 1287 L 744 1291 L 733 1290 L 722 1280 L 723 1258 Z
M 617 1241 L 617 1245 L 614 1244 L 610 1248 L 604 1267 L 607 1285 L 617 1298 L 630 1304 L 650 1306 L 669 1302 L 679 1294 L 685 1282 L 664 1277 L 663 1284 L 658 1288 L 644 1291 L 634 1286 L 630 1280 L 630 1260 L 636 1249 L 654 1249 L 663 1258 L 684 1254 L 676 1242 L 666 1236 L 651 1233 L 635 1234 Z
M 1088 595 L 1085 599 L 1085 608 L 1096 618 L 1109 618 L 1120 609 L 1119 597 L 1110 590 L 1100 589 Z
M 858 594 L 854 605 L 860 615 L 878 618 L 888 612 L 891 603 L 883 592 L 869 589 Z
M 1164 510 L 1146 536 L 1143 564 L 1151 585 L 1169 604 L 1201 617 L 1237 619 L 1266 612 L 1270 607 L 1272 609 L 1285 600 L 1286 591 L 1254 611 L 1228 613 L 1203 605 L 1189 588 L 1183 568 L 1182 547 L 1188 521 L 1194 512 L 1207 501 L 1227 494 L 1248 494 L 1267 502 L 1280 515 L 1288 530 L 1288 487 L 1282 495 L 1276 497 L 1241 488 L 1207 489 L 1188 495 Z
M 1059 488 L 1056 488 L 1057 490 L 1049 497 L 1010 488 L 977 489 L 953 497 L 939 506 L 939 509 L 935 509 L 919 529 L 912 552 L 914 570 L 924 590 L 939 604 L 952 611 L 985 619 L 1025 616 L 1055 600 L 1056 591 L 1030 608 L 1008 613 L 989 611 L 974 605 L 961 592 L 954 578 L 952 542 L 954 531 L 964 511 L 984 497 L 997 494 L 1021 495 L 1043 506 L 1058 529 Z
M 827 487 L 819 497 L 780 488 L 753 488 L 735 492 L 708 506 L 693 522 L 682 549 L 684 571 L 693 589 L 707 603 L 721 611 L 749 618 L 790 617 L 822 602 L 826 598 L 825 592 L 800 609 L 786 612 L 763 612 L 743 605 L 733 595 L 725 579 L 722 536 L 731 514 L 737 508 L 755 497 L 767 494 L 793 496 L 807 503 L 820 515 L 828 530 Z
M 279 275 L 277 277 L 274 273 L 272 283 L 269 281 L 267 284 L 266 281 L 266 290 L 262 293 L 258 290 L 261 295 L 279 278 Z
M 908 245 L 841 252 L 769 267 L 695 291 L 640 315 L 585 345 L 534 379 L 475 427 L 428 474 L 379 534 L 344 587 L 311 649 L 286 709 L 266 774 L 252 844 L 245 916 L 245 982 L 253 1060 L 268 1131 L 291 1202 L 315 1257 L 341 1306 L 389 1377 L 430 1426 L 483 1478 L 537 1521 L 599 1561 L 673 1598 L 729 1619 L 782 1634 L 849 1647 L 911 1653 L 986 1653 L 1056 1646 L 1136 1629 L 1184 1614 L 1256 1584 L 1323 1547 L 1379 1508 L 1420 1474 L 1474 1420 L 1523 1359 L 1555 1310 L 1588 1248 L 1617 1176 L 1639 1096 L 1649 1036 L 1654 971 L 1653 905 L 1645 834 L 1632 772 L 1614 713 L 1589 652 L 1557 591 L 1518 532 L 1466 469 L 1418 422 L 1359 375 L 1312 344 L 1248 310 L 1176 281 L 1113 263 L 1043 250 L 965 244 Z
M 1392 1376 L 1391 1401 L 1368 1441 L 1347 1458 L 1347 1461 L 1323 1471 L 1320 1466 L 1320 1379 L 1325 1376 Z
M 528 1377 L 595 1376 L 598 1379 L 599 1466 L 596 1471 L 575 1464 L 539 1427 L 536 1417 L 531 1412 L 526 1392 Z
M 1045 1376 L 1147 1377 L 1149 1529 L 1080 1553 L 1058 1557 L 1045 1554 Z
M 773 1376 L 874 1377 L 875 1488 L 872 1556 L 826 1550 L 784 1535 L 770 1527 Z
M 1184 1373 L 1285 1372 L 1288 1375 L 1285 1494 L 1278 1493 L 1278 1496 L 1241 1512 L 1227 1515 L 1226 1518 L 1179 1524 L 1181 1377 Z
M 1012 1372 L 1014 1562 L 1005 1575 L 1002 1575 L 966 1616 L 960 1619 L 931 1585 L 929 1587 L 928 1582 L 910 1568 L 908 1562 L 908 1377 L 913 1373 Z
M 635 1370 L 641 1373 L 687 1371 L 737 1374 L 740 1519 L 737 1524 L 721 1524 L 692 1517 L 633 1492 L 630 1375 Z
M 511 1185 L 1406 1184 L 1407 1340 L 512 1341 Z
M 513 810 L 527 800 L 527 790 L 530 788 L 537 791 L 584 791 L 587 788 L 596 793 L 670 793 L 678 788 L 688 789 L 692 786 L 745 788 L 802 782 L 804 779 L 816 780 L 817 777 L 840 775 L 848 771 L 854 762 L 862 762 L 864 754 L 887 736 L 895 738 L 905 732 L 1018 734 L 1019 738 L 1022 737 L 1024 740 L 1055 742 L 1059 746 L 1073 745 L 1081 753 L 1095 755 L 1100 761 L 1098 763 L 1107 763 L 1118 771 L 1132 768 L 1133 771 L 1143 771 L 1151 775 L 1188 775 L 1192 771 L 1204 775 L 1282 775 L 1297 771 L 1311 773 L 1318 768 L 1350 769 L 1355 766 L 1362 769 L 1385 762 L 1393 765 L 1394 780 L 1398 781 L 1398 900 L 1390 909 L 1398 914 L 1399 971 L 1390 981 L 1354 982 L 1329 979 L 1282 981 L 1278 974 L 1241 974 L 1210 1001 L 1186 1001 L 1188 1013 L 1175 1031 L 1165 1040 L 1158 1040 L 1143 1054 L 1135 1056 L 1133 1066 L 1128 1069 L 1126 1081 L 1120 1082 L 1117 1089 L 1111 1087 L 1096 1095 L 1092 1104 L 1094 1109 L 1086 1120 L 1072 1124 L 1064 1132 L 1045 1132 L 1027 1122 L 991 1126 L 988 1121 L 973 1122 L 969 1118 L 963 1120 L 948 1115 L 942 1117 L 921 1099 L 908 1097 L 906 1091 L 884 1087 L 873 1076 L 871 1063 L 866 1063 L 857 1070 L 846 1071 L 840 1067 L 823 1071 L 810 1062 L 807 1056 L 802 1056 L 789 1042 L 779 1046 L 766 1042 L 765 1045 L 760 1041 L 756 1027 L 743 1011 L 743 1000 L 733 998 L 732 994 L 725 998 L 714 998 L 710 994 L 696 992 L 695 989 L 693 992 L 576 994 L 564 998 L 550 993 L 548 998 L 533 999 L 527 992 L 510 993 L 508 975 L 511 961 L 508 959 L 512 938 L 512 878 L 517 874 L 513 864 Z
M 517 428 L 1412 427 L 1414 677 L 520 678 Z
M 1403 236 L 1411 242 L 1415 258 L 1410 267 L 1401 272 L 1391 273 L 1390 276 L 1395 279 L 1414 276 L 1419 278 L 1414 266 L 1417 260 L 1426 256 L 1436 257 L 1417 240 Z
M 823 188 L 820 185 L 814 191 L 806 189 L 809 193 L 807 198 L 818 195 Z
M 1259 107 L 1255 108 L 1251 115 L 1251 120 L 1256 123 L 1262 114 Z
M 921 8 L 839 14 L 744 30 L 663 52 L 561 91 L 483 131 L 406 180 L 351 222 L 274 293 L 213 362 L 158 439 L 120 503 L 72 607 L 49 673 L 24 775 L 11 873 L 8 960 L 14 1056 L 27 1138 L 52 1234 L 86 1325 L 124 1402 L 172 1480 L 223 1548 L 291 1622 L 370 1691 L 442 1742 L 505 1779 L 617 1830 L 697 1856 L 785 1876 L 871 1887 L 968 1890 L 1066 1883 L 1162 1866 L 1265 1836 L 1339 1806 L 1429 1759 L 1506 1708 L 1573 1654 L 1635 1594 L 1696 1522 L 1748 1447 L 1802 1348 L 1830 1282 L 1861 1184 L 1878 1103 L 1888 1019 L 1890 916 L 1883 829 L 1864 726 L 1836 632 L 1803 552 L 1757 465 L 1717 404 L 1668 341 L 1595 264 L 1530 208 L 1449 151 L 1377 110 L 1292 72 L 1206 43 L 1114 22 L 1030 11 Z
M 871 1707 L 890 1708 L 892 1711 L 887 1778 L 892 1786 L 902 1790 L 913 1789 L 921 1780 L 926 1712 L 948 1713 L 941 1791 L 931 1805 L 929 1803 L 912 1809 L 890 1807 L 879 1802 L 868 1792 L 866 1757 Z
M 1100 1698 L 1101 1715 L 1052 1721 L 1054 1740 L 1097 1734 L 1102 1737 L 1104 1749 L 1101 1753 L 1057 1758 L 1060 1782 L 1111 1776 L 1113 1793 L 1042 1803 L 1036 1780 L 1028 1713 L 1027 1727 L 1001 1727 L 1002 1806 L 981 1806 L 979 1729 L 953 1729 L 950 1724 L 952 1710 L 1028 1709 L 1029 1706 Z
M 848 1706 L 858 1716 L 861 1725 L 857 1750 L 839 1762 L 804 1759 L 801 1761 L 796 1792 L 776 1790 L 790 1696 L 818 1698 Z
M 1171 1683 L 1185 1695 L 1188 1705 L 1185 1723 L 1172 1734 L 1186 1741 L 1212 1766 L 1203 1771 L 1190 1773 L 1158 1747 L 1144 1745 L 1139 1747 L 1149 1784 L 1146 1787 L 1129 1790 L 1115 1748 L 1103 1697 L 1147 1683 Z
M 692 1669 L 724 1677 L 723 1739 L 755 1686 L 784 1694 L 765 1767 L 757 1787 L 739 1781 L 757 1719 L 722 1777 L 703 1771 L 704 1707 L 687 1765 L 684 1767 L 667 1760 L 693 1673 Z
M 627 1643 L 644 1645 L 664 1655 L 676 1669 L 681 1686 L 679 1705 L 671 1722 L 660 1736 L 640 1745 L 622 1745 L 606 1739 L 589 1724 L 582 1704 L 585 1682 L 594 1663 L 607 1650 Z
M 1262 1641 L 1285 1641 L 1302 1655 L 1287 1668 L 1274 1660 L 1257 1664 L 1251 1671 L 1249 1689 L 1263 1716 L 1274 1722 L 1286 1721 L 1298 1708 L 1299 1693 L 1319 1691 L 1318 1717 L 1305 1732 L 1286 1741 L 1267 1741 L 1251 1734 L 1236 1717 L 1229 1698 L 1227 1677 L 1231 1666 L 1239 1654 Z
M 555 1602 L 573 1608 L 588 1620 L 595 1633 L 594 1653 L 574 1649 L 573 1635 L 565 1625 L 554 1621 L 541 1625 L 524 1648 L 521 1666 L 525 1673 L 526 1670 L 529 1671 L 527 1676 L 537 1682 L 548 1681 L 561 1673 L 573 1689 L 562 1698 L 548 1703 L 529 1701 L 510 1687 L 500 1664 L 501 1646 L 517 1617 L 529 1607 Z
M 1360 1592 L 1368 1608 L 1324 1633 L 1333 1648 L 1373 1626 L 1383 1638 L 1379 1645 L 1344 1664 L 1343 1667 L 1354 1686 L 1397 1660 L 1403 1663 L 1408 1675 L 1344 1711 L 1297 1627 Z
M 1429 1543 L 1468 1596 L 1484 1623 L 1467 1634 L 1403 1606 L 1438 1656 L 1421 1667 L 1365 1587 L 1383 1576 L 1447 1604 L 1413 1555 Z
M 437 1527 L 451 1528 L 468 1536 L 482 1550 L 489 1567 L 489 1584 L 475 1610 L 457 1625 L 443 1629 L 426 1628 L 409 1620 L 394 1603 L 388 1586 L 389 1569 L 406 1543 L 418 1533 Z
M 1487 1490 L 1495 1494 L 1500 1504 L 1480 1522 L 1530 1581 L 1515 1595 L 1465 1537 L 1461 1537 L 1442 1553 L 1438 1552 L 1430 1541 Z
M 386 1461 L 438 1514 L 438 1517 L 425 1528 L 419 1526 L 419 1522 L 408 1510 L 404 1511 L 349 1563 L 335 1547 L 351 1533 L 355 1525 L 357 1527 L 391 1492 L 373 1474 L 373 1471 Z
M 377 1450 L 381 1458 L 308 1520 L 297 1511 L 296 1503 L 359 1448 L 369 1442 Z
M 1536 1436 L 1544 1439 L 1550 1448 L 1516 1485 L 1530 1497 L 1562 1464 L 1575 1474 L 1553 1499 L 1554 1502 L 1551 1501 L 1543 1509 L 1554 1521 L 1561 1525 L 1596 1488 L 1609 1499 L 1559 1553 L 1553 1553 L 1553 1549 L 1488 1487 L 1493 1478 L 1496 1478 L 1516 1458 L 1514 1456 L 1519 1455 Z
M 330 1392 L 345 1408 L 350 1422 L 350 1439 L 343 1453 L 340 1455 L 325 1441 L 330 1432 L 330 1422 L 325 1413 L 316 1407 L 302 1407 L 290 1413 L 274 1427 L 270 1443 L 275 1454 L 283 1459 L 293 1460 L 302 1457 L 309 1477 L 298 1481 L 286 1481 L 269 1474 L 257 1461 L 251 1446 L 251 1429 L 257 1414 L 272 1398 L 288 1389 L 313 1386 Z
M 1585 1378 L 1602 1379 L 1616 1390 L 1620 1398 L 1619 1417 L 1669 1417 L 1656 1437 L 1615 1436 L 1601 1445 L 1601 1450 L 1630 1471 L 1620 1488 L 1540 1433 L 1571 1388 Z
M 1689 1296 L 1698 1306 L 1702 1306 L 1702 1311 L 1707 1316 L 1698 1336 L 1708 1329 L 1717 1328 L 1736 1342 L 1734 1349 L 1723 1353 L 1724 1356 L 1719 1356 L 1717 1360 L 1710 1362 L 1705 1356 L 1698 1355 L 1709 1369 L 1690 1393 L 1683 1388 L 1680 1378 L 1673 1374 L 1673 1364 L 1679 1353 L 1668 1361 L 1662 1361 L 1657 1355 L 1641 1347 L 1642 1340 L 1665 1327 L 1669 1327 L 1682 1337 L 1674 1325 L 1672 1314 Z
M 197 1291 L 205 1297 L 208 1296 L 207 1301 L 217 1310 L 217 1317 L 209 1327 L 210 1331 L 213 1325 L 215 1327 L 226 1321 L 233 1330 L 247 1338 L 245 1343 L 235 1346 L 224 1358 L 220 1358 L 218 1353 L 215 1356 L 212 1350 L 208 1349 L 218 1360 L 218 1365 L 202 1388 L 194 1385 L 192 1377 L 185 1376 L 187 1372 L 183 1360 L 189 1349 L 182 1355 L 171 1356 L 152 1341 L 155 1334 L 168 1328 L 172 1322 L 178 1322 L 182 1327 L 186 1325 L 186 1329 L 190 1329 L 186 1324 L 183 1308 Z
M 1744 1182 L 1747 1190 L 1751 1190 L 1760 1202 L 1749 1222 L 1753 1216 L 1759 1216 L 1767 1210 L 1771 1217 L 1789 1229 L 1768 1245 L 1762 1245 L 1749 1238 L 1760 1252 L 1760 1261 L 1753 1262 L 1740 1280 L 1722 1254 L 1733 1239 L 1726 1240 L 1717 1247 L 1698 1233 L 1693 1233 L 1692 1228 L 1699 1224 L 1696 1222 L 1698 1218 L 1706 1219 L 1715 1211 L 1720 1211 L 1734 1222 L 1728 1215 L 1723 1198 L 1730 1194 L 1738 1183 Z
M 149 1174 L 168 1194 L 168 1205 L 162 1206 L 159 1214 L 170 1206 L 177 1206 L 199 1220 L 198 1225 L 187 1228 L 188 1231 L 182 1231 L 183 1235 L 175 1240 L 159 1231 L 168 1245 L 168 1251 L 162 1255 L 152 1271 L 145 1268 L 143 1260 L 132 1245 L 142 1230 L 125 1240 L 102 1224 L 103 1220 L 125 1204 L 140 1212 L 139 1207 L 138 1211 L 134 1208 L 137 1202 L 132 1193 L 143 1184 Z
M 1766 1046 L 1772 1049 L 1785 1065 L 1776 1087 L 1787 1077 L 1795 1078 L 1797 1081 L 1807 1082 L 1804 1087 L 1815 1094 L 1802 1102 L 1796 1111 L 1786 1110 L 1785 1121 L 1768 1143 L 1763 1142 L 1751 1121 L 1757 1102 L 1753 1104 L 1753 1108 L 1744 1110 L 1747 1112 L 1745 1115 L 1736 1105 L 1723 1099 L 1719 1094 L 1740 1076 L 1752 1077 L 1751 1080 L 1753 1082 L 1755 1079 L 1755 1084 L 1758 1085 L 1750 1064 L 1753 1063 L 1753 1059 L 1760 1056 L 1761 1050 Z
M 116 1044 L 120 1044 L 123 1049 L 124 1045 L 125 1052 L 136 1062 L 127 1084 L 144 1072 L 146 1078 L 166 1089 L 158 1098 L 153 1098 L 153 1102 L 145 1105 L 144 1109 L 139 1109 L 124 1100 L 134 1111 L 135 1118 L 134 1123 L 123 1133 L 119 1143 L 115 1142 L 100 1117 L 108 1100 L 101 1104 L 102 1107 L 97 1106 L 99 1111 L 96 1112 L 80 1098 L 68 1094 L 69 1090 L 92 1073 L 97 1073 L 108 1082 L 103 1078 L 106 1076 L 102 1069 L 101 1057 L 105 1057 Z
M 113 919 L 120 922 L 134 938 L 133 944 L 129 945 L 131 951 L 126 951 L 123 960 L 137 948 L 144 950 L 152 960 L 161 964 L 159 971 L 146 976 L 134 986 L 130 985 L 133 981 L 123 975 L 136 992 L 115 1016 L 111 1015 L 97 989 L 108 974 L 89 983 L 79 975 L 71 974 L 67 968 L 68 963 L 89 949 L 95 949 L 107 960 L 104 952 L 98 949 L 100 944 L 97 938 Z
M 1776 913 L 1786 928 L 1792 931 L 1791 940 L 1787 944 L 1793 948 L 1796 945 L 1802 946 L 1804 950 L 1818 957 L 1822 964 L 1800 978 L 1789 977 L 1790 974 L 1783 971 L 1787 972 L 1784 974 L 1787 975 L 1787 980 L 1792 981 L 1792 990 L 1787 993 L 1785 1003 L 1782 1002 L 1774 1011 L 1755 987 L 1762 977 L 1758 974 L 1753 978 L 1742 976 L 1726 961 L 1734 952 L 1743 950 L 1748 944 L 1753 944 L 1763 951 L 1756 932 Z
M 112 792 L 119 795 L 119 799 L 133 814 L 129 817 L 129 826 L 124 825 L 123 832 L 127 827 L 141 823 L 161 839 L 160 843 L 146 848 L 141 857 L 130 855 L 123 850 L 132 859 L 131 864 L 134 867 L 128 870 L 115 889 L 108 885 L 106 877 L 100 876 L 99 873 L 102 871 L 97 865 L 97 860 L 108 846 L 89 856 L 65 842 L 69 835 L 88 823 L 86 820 L 92 821 L 107 833 L 97 817 L 97 809 L 103 805 L 104 797 Z
M 1764 786 L 1768 787 L 1783 805 L 1784 811 L 1775 825 L 1793 817 L 1814 833 L 1813 838 L 1808 838 L 1791 851 L 1786 852 L 1776 844 L 1779 851 L 1786 855 L 1783 856 L 1782 867 L 1767 883 L 1761 881 L 1760 874 L 1749 860 L 1748 854 L 1753 853 L 1757 844 L 1750 848 L 1751 851 L 1742 851 L 1723 841 L 1718 835 L 1738 817 L 1745 817 L 1760 827 L 1748 804 Z
M 141 659 L 143 666 L 150 669 L 155 676 L 155 686 L 151 691 L 153 695 L 150 694 L 146 699 L 156 692 L 166 691 L 172 698 L 182 702 L 187 709 L 171 717 L 165 726 L 159 726 L 146 716 L 157 730 L 157 734 L 143 753 L 135 756 L 120 732 L 129 719 L 126 717 L 119 724 L 113 725 L 90 707 L 111 690 L 122 692 L 129 699 L 122 685 L 122 676 Z
M 1747 656 L 1754 658 L 1760 667 L 1766 670 L 1768 676 L 1766 684 L 1759 690 L 1762 693 L 1759 694 L 1776 684 L 1785 694 L 1798 700 L 1797 705 L 1789 709 L 1788 713 L 1782 713 L 1776 720 L 1762 713 L 1762 717 L 1759 715 L 1767 723 L 1768 728 L 1756 743 L 1758 747 L 1747 751 L 1745 745 L 1734 736 L 1736 732 L 1732 725 L 1743 711 L 1736 713 L 1740 713 L 1738 718 L 1735 715 L 1730 719 L 1724 719 L 1702 704 L 1704 698 L 1726 682 L 1739 693 L 1735 689 L 1738 685 L 1733 679 L 1733 673 Z
M 192 540 L 208 558 L 208 565 L 203 568 L 198 580 L 200 576 L 216 570 L 237 588 L 225 594 L 215 605 L 199 597 L 208 609 L 208 615 L 190 637 L 185 633 L 184 640 L 183 626 L 172 614 L 172 609 L 176 607 L 174 602 L 179 602 L 181 597 L 164 604 L 144 592 L 141 587 L 146 581 L 160 575 L 161 568 L 171 571 L 181 580 L 182 577 L 175 565 L 169 561 L 172 555 L 180 552 L 184 542 Z
M 1700 532 L 1720 554 L 1716 565 L 1711 569 L 1712 573 L 1728 564 L 1741 577 L 1746 576 L 1750 583 L 1725 600 L 1710 591 L 1711 596 L 1716 598 L 1719 610 L 1709 621 L 1709 630 L 1707 631 L 1706 627 L 1704 632 L 1700 632 L 1692 619 L 1688 619 L 1689 615 L 1684 608 L 1684 603 L 1692 591 L 1685 597 L 1674 600 L 1669 593 L 1652 584 L 1653 579 L 1664 575 L 1675 564 L 1691 572 L 1683 554 Z
M 248 432 L 251 435 L 256 433 L 265 447 L 271 451 L 271 458 L 263 469 L 264 473 L 270 467 L 281 465 L 301 481 L 298 486 L 289 489 L 279 498 L 268 496 L 267 499 L 272 504 L 272 509 L 266 513 L 269 520 L 263 518 L 254 531 L 235 509 L 235 504 L 246 488 L 238 493 L 236 498 L 234 496 L 228 499 L 216 489 L 204 485 L 208 477 L 218 472 L 225 464 L 232 463 L 238 470 L 242 469 L 246 473 L 235 453 L 244 444 L 245 436 L 248 440 Z
M 1629 428 L 1640 438 L 1644 436 L 1643 443 L 1649 445 L 1649 454 L 1642 464 L 1642 469 L 1638 471 L 1656 458 L 1672 472 L 1680 475 L 1676 481 L 1655 496 L 1639 486 L 1649 499 L 1649 504 L 1634 527 L 1628 524 L 1615 504 L 1619 487 L 1611 494 L 1606 494 L 1584 478 L 1586 473 L 1592 471 L 1591 468 L 1601 464 L 1602 457 L 1612 460 L 1623 469 L 1615 449 L 1622 441 L 1618 439 L 1623 438 Z
M 1543 329 L 1563 353 L 1561 356 L 1558 354 L 1556 364 L 1560 365 L 1563 361 L 1572 363 L 1579 371 L 1589 376 L 1590 381 L 1581 384 L 1580 387 L 1576 386 L 1568 396 L 1554 388 L 1550 389 L 1558 399 L 1564 395 L 1566 399 L 1559 401 L 1560 408 L 1553 412 L 1544 426 L 1539 427 L 1536 418 L 1524 402 L 1532 389 L 1528 389 L 1526 394 L 1516 395 L 1503 384 L 1495 382 L 1494 377 L 1518 360 L 1530 365 L 1530 369 L 1534 371 L 1527 354 L 1524 353 L 1526 345 L 1529 345 Z
M 325 329 L 328 329 L 345 348 L 345 356 L 336 367 L 337 370 L 348 361 L 352 361 L 376 378 L 374 382 L 360 388 L 352 397 L 340 390 L 347 406 L 334 418 L 330 428 L 321 422 L 321 417 L 311 403 L 317 388 L 321 386 L 308 394 L 301 394 L 291 385 L 284 384 L 280 378 L 302 360 L 309 361 L 320 370 L 313 359 L 311 348 L 320 340 Z
M 1493 271 L 1498 283 L 1506 291 L 1496 296 L 1484 294 L 1485 304 L 1460 336 L 1452 342 L 1444 341 L 1441 338 L 1437 314 L 1445 306 L 1469 314 L 1466 313 L 1468 310 L 1464 305 L 1453 302 L 1450 298 L 1471 272 Z
M 463 234 L 466 251 L 461 259 L 476 259 L 487 268 L 494 280 L 494 302 L 487 315 L 478 323 L 464 328 L 450 328 L 435 321 L 442 312 L 446 299 L 439 302 L 430 312 L 416 302 L 408 288 L 410 267 L 425 264 L 433 259 L 436 271 L 430 283 L 440 280 L 451 288 L 455 306 L 469 303 L 481 290 L 484 281 L 481 276 L 473 276 L 462 284 L 460 288 L 464 289 L 475 281 L 476 292 L 468 301 L 456 303 L 454 293 L 458 289 L 438 263 L 442 243 L 456 240 Z
M 1395 224 L 1435 227 L 1452 250 L 1454 268 L 1447 278 L 1436 283 L 1428 283 L 1433 290 L 1433 301 L 1425 312 L 1413 314 L 1402 307 L 1400 297 L 1406 289 L 1390 296 L 1382 296 L 1367 280 L 1367 267 L 1375 256 L 1397 264 L 1398 261 L 1392 254 L 1380 249 Z
M 1213 213 L 1222 218 L 1225 230 L 1214 253 L 1210 257 L 1203 257 L 1194 250 L 1192 233 L 1195 230 L 1205 238 L 1213 237 L 1205 235 L 1200 228 L 1202 218 Z
M 1448 203 L 1460 195 L 1469 197 L 1472 201 L 1469 215 L 1461 214 L 1470 220 L 1477 221 L 1480 218 L 1475 209 L 1478 201 L 1489 203 L 1492 212 L 1487 223 L 1479 230 L 1461 231 L 1446 217 Z
M 1378 193 L 1383 202 L 1393 210 L 1384 217 L 1372 218 L 1376 229 L 1353 268 L 1358 294 L 1336 303 L 1309 301 L 1309 309 L 1296 316 L 1301 319 L 1308 318 L 1321 309 L 1317 320 L 1304 330 L 1361 366 L 1443 434 L 1499 494 L 1537 545 L 1571 599 L 1603 663 L 1630 735 L 1652 826 L 1662 924 L 1661 995 L 1653 1066 L 1631 1159 L 1614 1210 L 1583 1278 L 1555 1326 L 1499 1404 L 1443 1464 L 1403 1499 L 1355 1536 L 1282 1580 L 1229 1606 L 1162 1630 L 1086 1649 L 1016 1659 L 937 1662 L 873 1658 L 793 1645 L 731 1628 L 664 1603 L 593 1567 L 531 1527 L 473 1480 L 428 1436 L 373 1370 L 332 1306 L 304 1253 L 273 1177 L 258 1125 L 245 1062 L 237 984 L 237 913 L 243 849 L 253 793 L 277 710 L 303 647 L 333 589 L 359 548 L 399 495 L 439 451 L 484 408 L 527 374 L 576 341 L 648 302 L 696 282 L 764 260 L 846 243 L 928 236 L 992 237 L 1060 244 L 1136 260 L 1205 283 L 1277 316 L 1278 311 L 1294 310 L 1287 301 L 1290 295 L 1296 293 L 1287 283 L 1284 274 L 1286 262 L 1294 252 L 1307 251 L 1322 264 L 1322 274 L 1313 277 L 1295 261 L 1298 269 L 1313 281 L 1333 283 L 1346 278 L 1343 267 L 1359 236 L 1351 229 L 1341 227 L 1341 222 L 1356 198 Z
M 1118 189 L 1127 191 L 1132 198 L 1123 212 L 1134 211 L 1145 198 L 1147 199 L 1143 213 L 1129 227 L 1114 227 L 1103 215 L 1104 211 L 1118 207 L 1110 201 L 1112 193 Z
M 661 183 L 661 189 L 656 197 L 650 200 L 635 198 L 640 186 L 648 188 Z
M 1042 175 L 1056 177 L 1060 185 L 1057 211 L 1051 218 L 1036 215 L 1031 205 L 1031 195 L 1042 200 L 1052 197 L 1041 196 L 1036 191 L 1036 180 Z
M 833 176 L 838 214 L 827 215 L 826 210 L 825 214 L 812 217 L 798 215 L 794 203 L 803 200 L 798 200 L 793 193 L 795 181 L 802 176 Z
M 581 168 L 582 183 L 571 193 L 582 191 L 589 196 L 612 242 L 630 251 L 632 257 L 620 280 L 610 285 L 599 285 L 593 293 L 582 299 L 571 300 L 565 296 L 568 284 L 553 286 L 545 293 L 544 299 L 547 300 L 550 292 L 556 290 L 563 296 L 565 304 L 557 312 L 548 313 L 537 300 L 537 285 L 541 279 L 519 278 L 504 268 L 519 249 L 507 251 L 499 260 L 486 240 L 484 230 L 489 216 L 496 207 L 517 206 L 528 202 L 528 195 L 513 199 L 508 192 L 513 180 L 527 178 L 534 183 L 538 195 L 537 207 L 532 218 L 524 225 L 500 229 L 493 238 L 502 230 L 517 229 L 527 239 L 525 256 L 537 257 L 550 249 L 557 222 L 564 244 L 564 256 L 557 268 L 575 271 L 575 283 L 584 282 L 589 277 L 580 277 L 582 257 L 597 253 L 598 265 L 595 269 L 587 270 L 607 270 L 613 264 L 615 254 L 605 249 L 588 214 L 581 211 L 573 215 L 567 223 L 551 194 L 560 172 L 574 172 Z
M 1293 153 L 1302 155 L 1313 168 L 1329 166 L 1341 186 L 1316 245 L 1306 249 L 1300 245 L 1293 222 L 1300 215 L 1315 215 L 1324 209 L 1320 192 L 1312 183 L 1300 185 L 1294 177 L 1281 173 L 1271 186 L 1276 181 L 1290 187 L 1292 197 L 1286 215 L 1269 231 L 1259 229 L 1252 218 L 1259 187 L 1270 167 Z
M 662 134 L 662 150 L 656 157 L 652 157 L 666 161 L 676 175 L 678 196 L 672 210 L 661 220 L 647 225 L 630 225 L 611 211 L 627 194 L 620 193 L 606 200 L 594 170 L 604 151 L 614 153 L 626 149 L 628 157 L 624 166 L 618 171 L 605 174 L 603 178 L 621 171 L 628 174 L 635 183 L 633 201 L 645 203 L 658 199 L 668 188 L 668 181 L 663 178 L 655 179 L 642 186 L 630 157 L 640 137 L 652 139 Z
M 1191 127 L 1218 121 L 1230 134 L 1246 131 L 1252 140 L 1265 145 L 1259 157 L 1242 158 L 1228 145 L 1217 150 L 1206 138 L 1199 136 L 1203 139 L 1199 144 L 1207 153 L 1227 150 L 1253 166 L 1239 211 L 1235 214 L 1224 214 L 1213 198 L 1211 188 L 1216 182 L 1234 181 L 1238 178 L 1217 167 L 1209 166 L 1204 169 L 1197 195 L 1193 199 L 1183 201 L 1171 194 L 1169 183 L 1174 170 L 1187 175 L 1197 170 L 1195 166 L 1184 168 L 1178 160 L 1179 148 L 1190 142 L 1187 134 Z
M 1237 104 L 1246 97 L 1267 100 L 1277 111 L 1274 125 L 1277 128 L 1273 127 L 1266 131 L 1248 128 L 1237 118 Z
M 1099 105 L 1125 97 L 1139 109 L 1154 104 L 1164 114 L 1174 116 L 1170 125 L 1161 130 L 1153 130 L 1139 119 L 1131 122 L 1132 125 L 1165 137 L 1156 181 L 1150 187 L 1140 189 L 1127 167 L 1127 161 L 1131 156 L 1149 155 L 1141 148 L 1124 141 L 1107 140 L 1098 146 L 1102 143 L 1115 144 L 1122 151 L 1123 165 L 1115 177 L 1100 180 L 1088 172 L 1085 162 L 1086 142 L 1095 128 L 1105 124 L 1095 117 Z
M 822 103 L 835 165 L 830 172 L 824 173 L 815 168 L 801 155 L 804 147 L 817 136 L 818 126 L 804 117 L 790 115 L 778 118 L 770 125 L 781 123 L 788 126 L 798 140 L 800 164 L 790 181 L 781 183 L 764 176 L 752 191 L 739 188 L 730 179 L 726 169 L 727 157 L 737 140 L 726 133 L 715 133 L 699 140 L 700 143 L 708 142 L 716 146 L 721 156 L 706 175 L 708 177 L 713 171 L 723 171 L 730 182 L 728 189 L 721 197 L 710 201 L 699 197 L 694 191 L 691 175 L 705 162 L 688 164 L 681 135 L 695 121 L 711 112 L 725 112 L 743 117 L 751 132 L 752 146 L 744 152 L 742 158 L 756 165 L 767 152 L 780 158 L 787 157 L 790 149 L 782 144 L 773 143 L 761 148 L 758 143 L 756 125 L 769 102 L 783 95 L 802 95 L 818 99 Z
M 969 99 L 994 81 L 1006 88 L 1016 88 L 1013 98 L 1006 105 L 1021 111 L 1031 122 L 1032 130 L 1025 142 L 1036 147 L 1049 148 L 1057 144 L 1060 135 L 1054 130 L 1034 130 L 1036 101 L 1054 85 L 1064 92 L 1075 93 L 1069 107 L 1062 110 L 1046 108 L 1043 111 L 1055 110 L 1068 118 L 1070 140 L 1064 155 L 1044 169 L 1030 170 L 1019 167 L 1007 159 L 1017 139 L 1014 132 L 1001 125 L 984 125 L 974 134 L 978 146 L 975 142 L 978 130 L 992 126 L 1000 132 L 1003 148 L 992 164 L 983 167 L 976 164 L 965 146 L 965 129 L 978 110 Z
M 951 84 L 945 98 L 936 102 L 946 110 L 952 129 L 947 146 L 937 159 L 925 165 L 912 166 L 885 152 L 882 148 L 894 116 L 876 105 L 861 104 L 856 106 L 873 113 L 877 121 L 875 132 L 861 145 L 875 141 L 880 148 L 881 157 L 875 167 L 866 170 L 856 169 L 851 164 L 845 152 L 846 146 L 861 131 L 858 128 L 844 130 L 842 102 L 848 96 L 870 83 L 902 91 L 910 97 L 910 103 L 898 132 L 912 142 L 926 144 L 934 141 L 941 129 L 933 123 L 915 126 L 913 96 L 927 79 L 943 85 Z
M 1026 54 L 1032 45 L 1046 38 L 1068 41 L 1074 45 L 1082 58 L 1083 53 L 1078 50 L 1080 42 L 1087 40 L 1093 46 L 1093 54 L 1089 61 L 1071 73 L 1048 64 L 1032 67 L 1027 61 Z"/>
<path fill="#31338c" fill-rule="evenodd" d="M 952 1712 L 953 1726 L 979 1726 L 981 1728 L 982 1804 L 999 1805 L 999 1727 L 1003 1725 L 1025 1725 L 1026 1712 Z
M 873 1709 L 871 1713 L 867 1767 L 868 1784 L 871 1791 L 882 1802 L 894 1806 L 914 1807 L 929 1802 L 937 1793 L 941 1780 L 946 1714 L 928 1713 L 923 1779 L 915 1790 L 906 1792 L 892 1788 L 885 1776 L 890 1710 Z
M 1097 1699 L 1030 1708 L 1042 1801 L 1112 1792 L 1111 1777 L 1059 1784 L 1056 1775 L 1056 1757 L 1101 1751 L 1100 1737 L 1053 1742 L 1050 1721 L 1099 1713 L 1100 1707 Z
M 850 1709 L 834 1703 L 793 1697 L 777 1789 L 794 1792 L 801 1757 L 818 1760 L 840 1760 L 853 1751 L 859 1736 L 859 1724 Z
M 808 1715 L 824 1716 L 835 1720 L 841 1729 L 840 1736 L 836 1742 L 831 1745 L 805 1742 L 804 1734 Z
M 1169 1684 L 1154 1684 L 1105 1698 L 1121 1759 L 1131 1788 L 1147 1784 L 1137 1746 L 1149 1742 L 1157 1744 L 1190 1771 L 1209 1766 L 1188 1745 L 1170 1735 L 1183 1723 L 1186 1716 L 1186 1704 L 1181 1693 Z
M 1166 1704 L 1168 1717 L 1164 1722 L 1139 1731 L 1132 1731 L 1126 1711 L 1127 1707 L 1151 1700 L 1161 1700 Z
M 695 1670 L 670 1760 L 685 1764 L 701 1708 L 706 1698 L 705 1771 L 719 1775 L 722 1774 L 757 1714 L 759 1715 L 741 1781 L 756 1785 L 782 1695 L 756 1688 L 722 1742 L 720 1739 L 721 1677 Z
M 625 1645 L 613 1649 L 599 1660 L 587 1682 L 584 1704 L 590 1722 L 598 1731 L 613 1740 L 627 1744 L 637 1744 L 652 1739 L 667 1725 L 677 1704 L 679 1684 L 674 1669 L 660 1654 L 642 1646 Z
M 637 1661 L 649 1665 L 658 1674 L 661 1681 L 661 1693 L 657 1705 L 649 1718 L 636 1727 L 622 1727 L 611 1721 L 605 1714 L 602 1704 L 603 1693 L 609 1678 L 617 1668 L 626 1662 Z
M 1268 1642 L 1249 1649 L 1237 1660 L 1230 1675 L 1230 1694 L 1239 1717 L 1251 1731 L 1268 1739 L 1285 1739 L 1300 1733 L 1312 1722 L 1317 1712 L 1318 1695 L 1317 1693 L 1302 1694 L 1300 1696 L 1299 1710 L 1296 1716 L 1288 1722 L 1275 1724 L 1261 1716 L 1248 1692 L 1247 1676 L 1250 1669 L 1263 1659 L 1272 1658 L 1284 1664 L 1289 1664 L 1300 1655 L 1286 1644 Z
M 561 1605 L 545 1604 L 527 1611 L 515 1623 L 503 1647 L 502 1665 L 507 1679 L 519 1692 L 533 1699 L 552 1700 L 571 1689 L 570 1685 L 560 1675 L 550 1682 L 537 1684 L 530 1681 L 520 1669 L 519 1659 L 523 1646 L 529 1635 L 539 1624 L 547 1620 L 558 1620 L 565 1623 L 574 1633 L 575 1647 L 592 1652 L 593 1636 L 589 1625 L 579 1614 Z
M 1359 1594 L 1299 1628 L 1345 1709 L 1406 1675 L 1402 1665 L 1398 1662 L 1355 1687 L 1352 1686 L 1341 1664 L 1380 1641 L 1375 1629 L 1372 1629 L 1333 1650 L 1322 1632 L 1366 1606 Z
M 1428 1545 L 1415 1555 L 1449 1602 L 1448 1605 L 1384 1578 L 1380 1578 L 1368 1587 L 1421 1664 L 1435 1655 L 1401 1607 L 1402 1605 L 1406 1605 L 1467 1632 L 1482 1622 Z
M 434 1529 L 417 1536 L 401 1552 L 392 1569 L 391 1589 L 398 1606 L 413 1620 L 430 1627 L 445 1627 L 464 1618 L 480 1600 L 487 1583 L 487 1566 L 479 1549 L 466 1537 L 452 1530 Z
M 452 1547 L 458 1550 L 468 1561 L 470 1567 L 469 1581 L 458 1598 L 446 1608 L 440 1610 L 425 1609 L 415 1602 L 409 1592 L 408 1581 L 411 1571 L 423 1555 L 432 1548 L 438 1546 Z
M 1488 1492 L 1435 1537 L 1433 1541 L 1439 1549 L 1443 1550 L 1463 1534 L 1515 1593 L 1527 1583 L 1527 1579 L 1478 1523 L 1478 1520 L 1498 1503 Z
M 386 1464 L 381 1466 L 375 1474 L 393 1494 L 337 1548 L 350 1561 L 406 1507 L 424 1525 L 429 1524 L 436 1517 Z
M 371 1446 L 367 1444 L 298 1504 L 307 1517 L 313 1515 L 379 1458 Z
M 1538 1437 L 1498 1478 L 1491 1488 L 1559 1552 L 1607 1500 L 1596 1491 L 1561 1527 L 1556 1525 L 1541 1509 L 1572 1477 L 1572 1474 L 1565 1467 L 1562 1466 L 1530 1499 L 1514 1484 L 1547 1449 L 1548 1446 Z
M 321 1390 L 306 1387 L 291 1390 L 269 1403 L 258 1416 L 253 1428 L 253 1447 L 258 1459 L 274 1475 L 284 1479 L 298 1479 L 307 1475 L 301 1460 L 288 1462 L 279 1459 L 273 1455 L 268 1442 L 272 1427 L 283 1416 L 300 1406 L 310 1404 L 323 1409 L 329 1416 L 332 1424 L 332 1431 L 327 1440 L 340 1452 L 344 1448 L 349 1434 L 347 1418 L 336 1400 Z
M 1585 1380 L 1577 1385 L 1568 1395 L 1543 1430 L 1543 1433 L 1613 1483 L 1619 1485 L 1628 1474 L 1628 1471 L 1597 1449 L 1605 1438 L 1611 1435 L 1654 1436 L 1667 1418 L 1625 1417 L 1617 1419 L 1619 1404 L 1615 1391 L 1600 1380 Z
M 1594 1398 L 1602 1404 L 1604 1411 L 1594 1429 L 1584 1440 L 1565 1425 L 1585 1399 Z
M 737 1250 L 726 1256 L 723 1264 L 723 1274 L 729 1286 L 743 1289 L 754 1283 L 757 1265 L 751 1253 Z
M 940 1250 L 941 1264 L 951 1264 L 957 1260 L 958 1255 L 954 1250 Z
M 1301 1250 L 1301 1260 L 1303 1261 L 1318 1260 L 1323 1256 L 1320 1249 L 1304 1248 Z
M 513 1186 L 513 1340 L 1405 1340 L 1406 1337 L 1405 1186 Z
M 1095 1233 L 1176 1234 L 1175 1251 L 1149 1252 L 1148 1306 L 1121 1305 L 1121 1252 L 1095 1251 Z
M 912 1305 L 913 1233 L 966 1233 L 975 1236 L 982 1242 L 986 1250 L 986 1262 L 978 1274 L 964 1280 L 940 1281 L 939 1306 Z
M 1273 1234 L 1282 1232 L 1330 1233 L 1344 1238 L 1350 1246 L 1351 1257 L 1344 1268 L 1334 1273 L 1344 1282 L 1357 1305 L 1328 1306 L 1308 1277 L 1303 1276 L 1301 1277 L 1301 1305 L 1274 1306 Z
M 1259 1233 L 1259 1251 L 1215 1251 L 1216 1260 L 1255 1260 L 1256 1275 L 1216 1276 L 1215 1287 L 1260 1288 L 1261 1305 L 1188 1306 L 1187 1234 Z
M 1083 1234 L 1083 1282 L 1081 1289 L 1072 1300 L 1054 1307 L 1031 1307 L 1018 1304 L 1005 1294 L 1000 1282 L 1001 1233 L 1028 1234 L 1028 1280 L 1033 1287 L 1038 1289 L 1050 1287 L 1055 1280 L 1055 1234 L 1072 1232 Z
M 896 1234 L 897 1295 L 895 1306 L 873 1305 L 872 1265 L 869 1267 L 859 1304 L 857 1306 L 838 1306 L 826 1267 L 823 1264 L 822 1305 L 799 1305 L 800 1233 L 834 1233 L 847 1274 L 861 1233 L 891 1232 Z
M 703 1245 L 716 1236 L 730 1232 L 752 1232 L 769 1238 L 779 1247 L 784 1257 L 785 1278 L 782 1287 L 769 1301 L 752 1307 L 730 1307 L 713 1302 L 700 1290 L 695 1277 L 695 1262 Z
M 616 1240 L 637 1232 L 656 1232 L 675 1239 L 683 1248 L 684 1256 L 663 1260 L 654 1251 L 641 1251 L 632 1260 L 631 1275 L 634 1284 L 644 1289 L 656 1287 L 664 1275 L 685 1280 L 687 1283 L 682 1293 L 674 1301 L 658 1307 L 631 1306 L 616 1299 L 608 1290 L 603 1277 L 605 1254 Z
M 519 430 L 521 676 L 1411 676 L 1411 429 Z
M 1085 596 L 1097 588 L 1112 589 L 1122 599 L 1121 611 L 1111 619 L 1094 619 L 1083 608 Z
M 860 591 L 872 587 L 884 590 L 892 600 L 890 612 L 877 620 L 861 618 L 852 606 L 854 597 Z
M 1164 508 L 1186 494 L 1209 487 L 1238 486 L 1277 495 L 1282 493 L 1286 486 L 1290 486 L 1290 531 L 1284 529 L 1276 513 L 1264 503 L 1245 496 L 1228 496 L 1215 499 L 1198 510 L 1189 524 L 1184 544 L 1185 569 L 1189 583 L 1195 594 L 1206 604 L 1223 610 L 1247 610 L 1267 603 L 1286 588 L 1289 593 L 1288 599 L 1263 615 L 1232 621 L 1194 617 L 1180 612 L 1165 603 L 1152 590 L 1144 575 L 1141 563 L 1141 549 L 1144 536 L 1152 521 Z
M 928 513 L 946 499 L 978 487 L 1008 486 L 1048 495 L 1056 486 L 1060 486 L 1060 531 L 1054 529 L 1044 511 L 1032 502 L 1014 496 L 996 496 L 977 503 L 965 513 L 957 528 L 954 541 L 956 575 L 964 593 L 974 603 L 993 610 L 1016 610 L 1040 601 L 1055 589 L 1058 590 L 1057 600 L 1033 615 L 1002 621 L 987 621 L 964 617 L 936 604 L 920 587 L 911 564 L 912 541 L 918 527 Z
M 699 512 L 719 497 L 743 488 L 778 486 L 817 495 L 823 491 L 825 486 L 829 486 L 831 489 L 831 529 L 828 532 L 824 530 L 817 515 L 802 502 L 784 496 L 761 497 L 745 504 L 734 514 L 726 530 L 723 549 L 728 582 L 736 596 L 751 607 L 763 610 L 794 608 L 810 601 L 826 588 L 828 589 L 828 598 L 805 614 L 776 621 L 737 618 L 712 608 L 703 602 L 691 589 L 685 579 L 680 560 L 684 535 Z
M 475 285 L 473 284 L 464 291 L 457 291 L 456 301 L 464 301 L 469 298 L 474 292 Z
M 1492 273 L 1471 275 L 1452 299 L 1465 304 L 1471 312 L 1470 316 L 1459 314 L 1446 307 L 1440 314 L 1444 339 L 1455 339 L 1483 304 L 1482 295 L 1476 289 L 1469 287 L 1468 283 L 1476 283 L 1484 293 L 1490 295 L 1504 290 L 1496 283 Z
M 462 236 L 455 242 L 443 244 L 441 266 L 457 286 L 471 275 L 481 274 L 484 277 L 484 288 L 475 301 L 464 307 L 452 307 L 450 291 L 441 283 L 431 284 L 418 294 L 417 289 L 433 276 L 434 267 L 431 261 L 425 266 L 413 268 L 410 286 L 427 310 L 439 300 L 447 299 L 446 309 L 438 321 L 449 326 L 465 326 L 480 319 L 489 309 L 493 296 L 491 280 L 479 263 L 471 259 L 465 259 L 457 263 L 451 270 L 448 269 L 448 264 L 464 252 Z
M 1400 226 L 1393 229 L 1382 249 L 1393 253 L 1399 259 L 1400 264 L 1392 265 L 1376 257 L 1369 267 L 1368 277 L 1373 287 L 1384 294 L 1391 294 L 1408 286 L 1417 288 L 1422 294 L 1422 298 L 1419 299 L 1415 292 L 1407 290 L 1402 297 L 1402 304 L 1410 311 L 1419 312 L 1428 306 L 1432 298 L 1431 291 L 1425 282 L 1436 281 L 1445 277 L 1452 268 L 1452 255 L 1445 241 L 1434 229 Z
M 1402 234 L 1421 240 L 1436 254 L 1441 265 L 1437 276 L 1434 276 L 1432 273 L 1436 262 L 1432 258 L 1425 258 L 1417 264 L 1417 272 L 1422 278 L 1421 280 L 1409 278 L 1391 280 L 1389 278 L 1389 272 L 1408 266 L 1413 258 L 1413 251 L 1401 236 Z
M 1214 216 L 1206 216 L 1202 223 L 1206 233 L 1216 235 L 1213 239 L 1203 239 L 1194 234 L 1195 248 L 1203 255 L 1210 255 L 1213 252 L 1223 227 L 1222 221 Z
M 1450 204 L 1448 214 L 1451 221 L 1457 227 L 1466 230 L 1479 227 L 1485 222 L 1490 213 L 1487 204 L 1477 204 L 1481 220 L 1474 223 L 1463 218 L 1454 207 L 1457 205 L 1462 211 L 1467 211 L 1470 208 L 1470 202 L 1467 198 L 1459 197 Z
M 1377 194 L 1357 199 L 1343 223 L 1345 226 L 1355 229 L 1361 235 L 1359 243 L 1346 264 L 1346 280 L 1332 285 L 1321 285 L 1311 282 L 1297 271 L 1293 260 L 1299 261 L 1307 272 L 1318 274 L 1321 272 L 1321 266 L 1317 260 L 1305 253 L 1297 253 L 1291 257 L 1286 268 L 1287 278 L 1298 293 L 1290 298 L 1289 303 L 1297 310 L 1290 313 L 1279 313 L 1278 320 L 1282 326 L 1293 332 L 1300 332 L 1316 319 L 1316 315 L 1308 320 L 1300 321 L 1294 315 L 1305 308 L 1307 298 L 1314 301 L 1329 302 L 1344 299 L 1356 293 L 1351 276 L 1351 268 L 1370 236 L 1373 225 L 1368 217 L 1355 212 L 1354 209 L 1360 206 L 1373 216 L 1384 215 L 1391 210 L 1385 207 Z
M 1118 191 L 1114 193 L 1112 200 L 1120 204 L 1121 207 L 1105 213 L 1105 216 L 1112 224 L 1126 226 L 1139 216 L 1144 203 L 1134 213 L 1129 215 L 1122 214 L 1120 210 L 1126 207 L 1129 197 L 1125 192 Z
M 658 187 L 640 189 L 637 196 L 642 199 L 650 198 L 656 194 Z
M 1041 177 L 1037 182 L 1039 192 L 1044 195 L 1053 194 L 1054 196 L 1049 201 L 1039 201 L 1034 198 L 1032 201 L 1035 210 L 1039 214 L 1049 217 L 1055 211 L 1058 183 L 1052 177 Z
M 829 176 L 824 176 L 816 181 L 803 178 L 796 183 L 794 191 L 800 198 L 804 198 L 807 195 L 805 190 L 799 189 L 801 186 L 813 189 L 818 184 L 821 184 L 824 187 L 824 192 L 820 196 L 796 204 L 799 212 L 812 215 L 824 210 L 829 213 L 837 211 L 835 197 L 829 199 L 822 208 L 816 208 L 812 205 L 813 202 L 828 197 L 835 192 L 833 180 Z
M 580 171 L 573 174 L 561 174 L 553 194 L 566 219 L 576 211 L 586 210 L 606 247 L 617 253 L 613 267 L 606 273 L 600 274 L 594 270 L 584 271 L 588 266 L 596 264 L 597 258 L 595 256 L 585 257 L 583 260 L 582 276 L 590 276 L 589 280 L 583 284 L 573 284 L 574 273 L 566 270 L 556 270 L 555 268 L 562 252 L 562 242 L 558 228 L 553 247 L 544 257 L 532 259 L 524 256 L 526 243 L 523 235 L 519 232 L 506 231 L 500 234 L 494 241 L 492 240 L 491 236 L 498 228 L 505 225 L 524 223 L 531 216 L 536 203 L 536 193 L 533 185 L 527 180 L 521 179 L 513 182 L 510 193 L 512 197 L 528 193 L 532 197 L 530 202 L 521 207 L 496 209 L 485 233 L 499 256 L 511 247 L 516 246 L 520 248 L 519 254 L 507 268 L 520 276 L 543 278 L 539 285 L 538 297 L 542 305 L 549 311 L 555 311 L 562 304 L 562 299 L 556 292 L 550 295 L 547 302 L 543 301 L 543 293 L 552 285 L 559 282 L 567 282 L 570 284 L 568 296 L 577 298 L 585 296 L 592 291 L 597 283 L 606 284 L 618 279 L 624 272 L 630 253 L 618 249 L 610 243 L 589 200 L 584 194 L 575 193 L 562 201 L 560 200 L 560 196 L 564 192 L 573 190 L 579 185 L 581 181 Z
M 1280 161 L 1267 175 L 1256 202 L 1255 219 L 1262 229 L 1270 229 L 1277 224 L 1286 211 L 1290 192 L 1284 185 L 1276 185 L 1269 194 L 1269 199 L 1273 204 L 1279 203 L 1284 205 L 1282 209 L 1278 211 L 1271 210 L 1264 202 L 1265 191 L 1271 180 L 1279 172 L 1289 172 L 1301 183 L 1306 181 L 1315 183 L 1323 194 L 1326 204 L 1325 211 L 1318 216 L 1300 217 L 1296 221 L 1302 246 L 1307 247 L 1315 243 L 1339 190 L 1339 186 L 1328 168 L 1311 169 L 1299 155 Z
M 1319 220 L 1320 222 L 1316 227 L 1314 222 Z
M 661 139 L 642 139 L 632 158 L 642 184 L 655 177 L 665 177 L 670 181 L 667 193 L 656 202 L 645 205 L 633 203 L 631 201 L 633 184 L 625 174 L 615 174 L 605 180 L 602 179 L 605 172 L 621 167 L 624 163 L 625 152 L 605 154 L 596 171 L 606 198 L 620 191 L 629 192 L 626 200 L 613 210 L 624 220 L 633 223 L 648 223 L 660 219 L 672 206 L 675 197 L 675 179 L 669 167 L 660 160 L 651 160 L 640 166 L 638 165 L 641 158 L 652 156 L 659 151 Z
M 1193 128 L 1190 131 L 1189 138 L 1194 143 L 1185 145 L 1180 151 L 1179 157 L 1181 163 L 1186 167 L 1196 164 L 1198 171 L 1191 176 L 1183 176 L 1175 172 L 1171 182 L 1173 193 L 1182 199 L 1193 197 L 1203 168 L 1206 165 L 1220 166 L 1237 175 L 1240 180 L 1233 183 L 1219 183 L 1215 185 L 1214 195 L 1226 213 L 1236 211 L 1251 167 L 1228 152 L 1216 152 L 1206 155 L 1198 145 L 1200 139 L 1196 134 L 1203 134 L 1216 147 L 1229 143 L 1245 156 L 1257 154 L 1263 146 L 1252 142 L 1246 134 L 1230 137 L 1217 124 Z
M 1239 184 L 1239 190 L 1235 192 L 1233 187 Z
M 1099 107 L 1097 116 L 1105 121 L 1110 118 L 1104 112 L 1109 110 L 1114 112 L 1124 123 L 1103 126 L 1091 136 L 1087 145 L 1087 162 L 1090 171 L 1099 178 L 1108 178 L 1119 170 L 1121 154 L 1112 145 L 1105 145 L 1099 149 L 1098 152 L 1105 160 L 1103 164 L 1098 163 L 1094 158 L 1095 148 L 1102 140 L 1118 138 L 1138 144 L 1151 153 L 1148 157 L 1129 160 L 1129 167 L 1138 180 L 1140 187 L 1145 187 L 1152 183 L 1163 139 L 1160 136 L 1129 126 L 1127 123 L 1135 118 L 1140 118 L 1153 128 L 1162 128 L 1170 122 L 1172 117 L 1162 115 L 1153 106 L 1138 111 L 1124 99 Z
M 1151 160 L 1151 165 L 1148 168 L 1146 163 Z
M 1241 102 L 1238 108 L 1238 115 L 1245 124 L 1261 130 L 1269 128 L 1273 124 L 1276 115 L 1274 109 L 1268 103 L 1253 98 Z
M 1260 105 L 1264 110 L 1263 117 L 1257 124 L 1254 124 L 1249 119 L 1250 112 L 1256 105 Z
M 820 104 L 808 98 L 795 96 L 782 97 L 772 102 L 766 108 L 758 125 L 761 144 L 763 146 L 770 142 L 782 142 L 792 149 L 792 153 L 785 160 L 768 154 L 757 166 L 750 166 L 741 160 L 742 152 L 750 145 L 747 127 L 741 118 L 733 115 L 713 113 L 696 123 L 683 136 L 689 163 L 702 158 L 707 161 L 693 175 L 693 184 L 697 192 L 705 198 L 713 198 L 722 194 L 727 187 L 727 180 L 723 173 L 714 173 L 709 178 L 704 176 L 705 172 L 717 160 L 717 150 L 709 144 L 694 145 L 696 140 L 702 135 L 714 131 L 725 131 L 738 138 L 739 144 L 729 157 L 728 170 L 733 179 L 742 187 L 752 189 L 763 174 L 782 181 L 789 180 L 795 173 L 798 164 L 798 148 L 795 138 L 790 130 L 782 126 L 769 125 L 773 119 L 785 114 L 803 115 L 818 123 L 821 128 L 820 134 L 803 153 L 809 161 L 824 171 L 828 171 L 833 165 L 833 159 Z
M 972 100 L 980 111 L 972 119 L 966 139 L 968 150 L 978 163 L 987 164 L 996 158 L 1001 149 L 1000 136 L 992 128 L 982 129 L 977 137 L 978 142 L 983 146 L 996 142 L 998 144 L 996 149 L 984 151 L 977 148 L 973 143 L 972 136 L 974 130 L 981 124 L 988 122 L 1007 125 L 1018 135 L 1019 139 L 1009 159 L 1019 165 L 1029 168 L 1041 168 L 1056 161 L 1064 151 L 1069 136 L 1067 121 L 1059 113 L 1052 111 L 1042 112 L 1041 109 L 1047 105 L 1056 108 L 1065 107 L 1072 100 L 1072 95 L 1065 94 L 1054 88 L 1038 104 L 1037 130 L 1053 128 L 1062 135 L 1061 141 L 1056 147 L 1046 150 L 1035 149 L 1023 143 L 1031 127 L 1023 115 L 1011 108 L 988 107 L 984 103 L 985 101 L 1005 103 L 1010 99 L 1014 91 L 1006 90 L 994 83 Z
M 948 86 L 939 86 L 928 81 L 914 98 L 916 123 L 919 125 L 931 121 L 940 124 L 943 128 L 939 139 L 929 145 L 915 145 L 906 141 L 897 133 L 908 98 L 888 88 L 869 85 L 844 102 L 845 128 L 857 126 L 863 129 L 863 132 L 848 147 L 849 157 L 853 164 L 859 168 L 868 168 L 874 165 L 879 158 L 879 150 L 876 145 L 869 143 L 863 149 L 859 146 L 875 127 L 875 120 L 870 113 L 850 108 L 852 105 L 860 102 L 878 104 L 896 115 L 896 122 L 885 145 L 888 152 L 912 164 L 925 163 L 936 157 L 943 149 L 948 138 L 947 116 L 939 106 L 926 105 L 919 107 L 918 104 L 925 99 L 933 101 L 941 99 L 947 92 Z
M 1028 58 L 1032 65 L 1050 63 L 1065 71 L 1071 71 L 1082 65 L 1089 58 L 1091 46 L 1085 42 L 1080 45 L 1080 48 L 1085 53 L 1085 57 L 1082 59 L 1065 42 L 1049 39 L 1036 44 L 1030 50 Z
M 1039 55 L 1045 51 L 1057 51 L 1071 63 L 1072 67 L 1070 68 L 1056 57 L 1040 57 Z"/>
<path fill="#39c4f0" fill-rule="evenodd" d="M 1688 1299 L 1675 1316 L 1685 1340 L 1677 1338 L 1665 1329 L 1643 1344 L 1664 1358 L 1682 1348 L 1685 1349 L 1685 1353 L 1675 1367 L 1675 1370 L 1689 1391 L 1704 1371 L 1693 1350 L 1699 1350 L 1714 1358 L 1719 1352 L 1733 1344 L 1713 1330 L 1695 1341 L 1693 1336 L 1704 1317 Z
M 199 1294 L 185 1312 L 193 1326 L 195 1335 L 190 1335 L 176 1324 L 154 1339 L 174 1353 L 179 1352 L 193 1342 L 196 1344 L 185 1364 L 199 1385 L 215 1365 L 206 1353 L 203 1345 L 207 1344 L 224 1353 L 234 1344 L 244 1339 L 233 1333 L 225 1325 L 205 1336 L 203 1332 L 214 1312 Z
M 1740 1185 L 1726 1201 L 1737 1223 L 1733 1225 L 1719 1214 L 1716 1214 L 1696 1229 L 1717 1243 L 1734 1232 L 1738 1234 L 1726 1254 L 1741 1275 L 1756 1256 L 1744 1234 L 1747 1233 L 1765 1243 L 1777 1232 L 1785 1229 L 1765 1214 L 1753 1223 L 1745 1225 L 1744 1223 L 1756 1201 Z
M 149 1178 L 135 1194 L 146 1218 L 139 1217 L 126 1207 L 105 1223 L 125 1236 L 128 1236 L 142 1226 L 146 1227 L 146 1231 L 136 1248 L 150 1269 L 165 1248 L 154 1229 L 158 1227 L 175 1236 L 180 1230 L 194 1222 L 175 1208 L 155 1219 L 154 1214 L 165 1195 Z
M 1767 1049 L 1753 1066 L 1763 1089 L 1759 1090 L 1743 1079 L 1722 1094 L 1742 1108 L 1745 1108 L 1760 1097 L 1764 1099 L 1753 1119 L 1767 1140 L 1782 1120 L 1771 1099 L 1774 1098 L 1792 1108 L 1801 1099 L 1812 1094 L 1792 1080 L 1772 1091 L 1771 1087 L 1782 1066 Z
M 118 1047 L 103 1064 L 113 1082 L 112 1088 L 94 1076 L 73 1091 L 93 1105 L 108 1096 L 114 1096 L 113 1101 L 103 1116 L 117 1137 L 133 1117 L 121 1098 L 125 1096 L 142 1105 L 150 1097 L 161 1091 L 146 1081 L 144 1077 L 141 1077 L 125 1088 L 122 1087 L 122 1083 L 132 1067 L 132 1063 Z
M 114 921 L 109 930 L 100 938 L 111 961 L 107 963 L 90 951 L 83 958 L 69 966 L 91 981 L 107 970 L 110 970 L 111 974 L 100 992 L 115 1012 L 131 992 L 121 979 L 119 972 L 121 971 L 140 980 L 146 973 L 159 966 L 151 962 L 140 952 L 120 963 L 119 959 L 130 940 Z
M 1774 917 L 1761 933 L 1770 956 L 1767 958 L 1752 947 L 1749 947 L 1729 962 L 1749 976 L 1769 966 L 1770 971 L 1761 984 L 1761 989 L 1775 1008 L 1790 988 L 1778 968 L 1785 968 L 1799 976 L 1808 967 L 1819 962 L 1808 956 L 1798 947 L 1792 953 L 1780 958 L 1778 955 L 1789 938 L 1789 934 Z
M 113 795 L 99 812 L 110 835 L 107 837 L 92 825 L 89 825 L 68 840 L 90 854 L 97 848 L 109 843 L 111 846 L 100 862 L 100 866 L 114 886 L 129 865 L 118 849 L 118 845 L 121 844 L 138 854 L 145 846 L 158 840 L 138 825 L 119 836 L 118 832 L 128 815 L 128 811 Z
M 1765 790 L 1752 806 L 1762 829 L 1759 831 L 1743 819 L 1721 834 L 1741 848 L 1762 838 L 1763 842 L 1752 860 L 1767 880 L 1782 860 L 1773 848 L 1770 840 L 1774 839 L 1791 848 L 1811 834 L 1801 829 L 1791 820 L 1772 831 L 1770 827 L 1781 807 Z
M 137 663 L 124 680 L 134 699 L 134 703 L 127 702 L 114 692 L 93 707 L 113 721 L 116 721 L 126 713 L 135 712 L 124 733 L 138 753 L 153 734 L 153 730 L 144 720 L 142 713 L 145 712 L 162 722 L 182 707 L 162 693 L 143 704 L 143 698 L 153 680 Z
M 1749 658 L 1736 674 L 1746 697 L 1743 699 L 1725 688 L 1705 703 L 1726 717 L 1743 706 L 1747 708 L 1736 728 L 1750 749 L 1765 729 L 1765 726 L 1757 717 L 1754 708 L 1757 707 L 1775 716 L 1793 702 L 1776 689 L 1756 699 L 1754 694 L 1765 676 Z
M 189 543 L 176 559 L 184 576 L 185 583 L 179 582 L 166 572 L 145 587 L 166 602 L 180 592 L 186 592 L 176 613 L 184 623 L 189 634 L 205 613 L 194 594 L 200 593 L 214 602 L 224 592 L 234 587 L 214 573 L 201 582 L 194 583 L 193 581 L 205 561 Z
M 1701 537 L 1687 554 L 1695 569 L 1697 578 L 1694 579 L 1680 568 L 1676 568 L 1656 582 L 1676 596 L 1694 586 L 1698 588 L 1687 608 L 1701 629 L 1717 608 L 1705 589 L 1709 587 L 1726 596 L 1744 583 L 1743 580 L 1727 569 L 1723 569 L 1709 579 L 1705 578 L 1716 554 Z
M 253 437 L 239 454 L 249 473 L 248 478 L 230 466 L 208 481 L 229 496 L 244 486 L 249 486 L 249 490 L 239 507 L 248 518 L 252 527 L 269 508 L 257 487 L 265 488 L 278 496 L 283 490 L 297 482 L 278 467 L 262 478 L 257 477 L 268 454 Z
M 1631 432 L 1617 450 L 1627 468 L 1627 472 L 1621 472 L 1608 462 L 1586 477 L 1607 491 L 1627 480 L 1629 483 L 1617 503 L 1632 523 L 1647 503 L 1636 484 L 1640 482 L 1656 491 L 1675 477 L 1657 463 L 1641 473 L 1636 473 L 1636 469 L 1647 450 Z
M 1541 333 L 1528 350 L 1537 368 L 1537 374 L 1533 374 L 1518 363 L 1497 378 L 1517 392 L 1520 392 L 1534 382 L 1539 383 L 1528 404 L 1542 424 L 1557 404 L 1547 389 L 1546 383 L 1548 382 L 1563 391 L 1568 391 L 1573 385 L 1587 378 L 1566 364 L 1555 372 L 1547 374 L 1548 366 L 1557 351 Z
M 327 333 L 314 350 L 324 373 L 321 374 L 304 363 L 283 378 L 304 392 L 321 381 L 325 383 L 314 404 L 325 417 L 328 424 L 343 404 L 335 392 L 333 384 L 339 384 L 352 392 L 361 383 L 372 378 L 352 363 L 333 375 L 332 370 L 343 351 Z"/>
<path fill="#ef2028" fill-rule="evenodd" d="M 1389 1379 L 1323 1380 L 1324 1467 L 1337 1462 L 1350 1453 L 1371 1431 L 1386 1404 L 1390 1388 Z
M 530 1379 L 529 1392 L 531 1400 L 545 1428 L 572 1456 L 594 1467 L 596 1461 L 595 1380 Z
M 1048 1377 L 1047 1551 L 1050 1553 L 1070 1552 L 1144 1527 L 1144 1377 Z
M 912 1377 L 911 1562 L 913 1567 L 925 1576 L 949 1601 L 958 1614 L 962 1616 L 981 1592 L 1011 1562 L 1011 1377 Z
M 775 1377 L 774 1526 L 836 1549 L 857 1553 L 871 1552 L 872 1378 Z
M 1284 1376 L 1185 1376 L 1182 1520 L 1201 1520 L 1225 1514 L 1263 1499 L 1284 1488 Z
M 635 1376 L 635 1488 L 667 1504 L 697 1515 L 718 1520 L 735 1521 L 737 1518 L 734 1377 Z"/>
<path fill="#f68a1f" fill-rule="evenodd" d="M 910 1083 L 907 1089 L 910 1093 L 923 1097 L 926 1101 L 930 1101 L 935 1108 L 942 1111 L 965 1116 L 966 1105 L 963 1102 L 948 1100 L 936 1095 L 931 1090 L 930 1085 L 920 1082 Z
M 954 1075 L 949 1083 L 951 1094 L 955 1097 L 967 1096 L 967 1083 L 961 1076 Z
M 1009 1052 L 1009 1055 L 1005 1057 L 1003 1068 L 1006 1074 L 1007 1096 L 1032 1091 L 1044 1095 L 1045 1099 L 1053 1103 L 1063 1101 L 1068 1091 L 1065 1086 L 1066 1082 L 1056 1073 L 1056 1065 L 1047 1064 L 1043 1068 L 1044 1070 L 1037 1074 L 1030 1065 L 1021 1062 L 1014 1051 Z
M 873 1050 L 862 1049 L 859 1052 L 849 1052 L 845 1056 L 844 1063 L 847 1066 L 854 1067 L 865 1060 L 871 1060 L 874 1057 Z
M 902 1031 L 898 1037 L 898 1045 L 905 1050 L 915 1048 L 914 1033 Z
M 758 1026 L 763 1040 L 793 1040 L 796 1037 L 796 1033 L 792 1029 L 786 1031 L 776 1023 L 760 1021 Z
M 987 1020 L 979 1028 L 980 1051 L 977 1058 L 978 1070 L 987 1068 L 988 1060 L 995 1054 L 997 1042 L 1001 1036 L 998 1028 Z
M 786 1001 L 769 1003 L 767 1014 L 772 1020 L 785 1020 L 789 1018 L 790 1009 Z
M 952 999 L 946 998 L 943 994 L 936 995 L 929 1006 L 915 1007 L 913 1014 L 921 1024 L 930 1025 L 933 1022 L 941 1022 L 942 1019 L 948 1017 L 953 1008 Z
M 533 984 L 531 991 L 535 996 L 543 996 L 548 991 L 546 983 L 543 985 Z
M 1002 991 L 1001 1002 L 1006 1007 L 1006 1012 L 1011 1015 L 1011 1019 L 1017 1025 L 1019 1032 L 1031 1033 L 1037 1037 L 1046 1035 L 1049 1040 L 1048 1043 L 1053 1048 L 1056 1047 L 1058 1051 L 1072 1051 L 1088 1065 L 1091 1064 L 1097 1068 L 1110 1067 L 1114 1062 L 1118 1061 L 1118 1055 L 1115 1050 L 1106 1049 L 1102 1043 L 1103 1039 L 1097 1038 L 1093 1032 L 1073 1030 L 1062 1021 L 1056 1021 L 1050 1015 L 1049 1005 L 1046 1001 L 1040 1001 L 1033 1005 L 1031 1000 L 1036 993 L 1037 985 L 1033 981 L 1020 981 L 1012 987 L 1006 987 Z
M 835 979 L 835 991 L 844 991 L 844 979 Z
M 685 988 L 683 979 L 675 976 L 631 976 L 610 981 L 602 979 L 560 979 L 553 981 L 551 989 L 552 991 L 569 994 L 576 991 L 631 992 L 638 989 Z
M 771 974 L 772 980 L 769 984 L 774 987 L 785 987 L 789 993 L 802 994 L 808 991 L 816 991 L 813 977 L 805 977 L 804 973 L 785 970 Z
M 789 947 L 790 958 L 802 959 L 806 957 L 815 969 L 827 967 L 834 973 L 840 970 L 846 971 L 849 968 L 858 971 L 861 976 L 854 981 L 855 988 L 853 993 L 856 1000 L 858 999 L 860 1004 L 864 1006 L 872 1005 L 882 1000 L 882 993 L 877 982 L 881 977 L 884 979 L 890 977 L 894 971 L 886 963 L 881 962 L 879 964 L 876 962 L 876 959 L 857 959 L 854 955 L 850 955 L 837 948 L 809 950 L 797 946 Z
M 601 949 L 600 955 L 610 968 L 628 969 L 631 966 L 632 957 L 626 947 L 622 947 L 618 943 L 610 943 Z
M 517 812 L 516 859 L 519 876 L 514 893 L 515 938 L 512 947 L 512 957 L 514 959 L 512 989 L 515 992 L 519 992 L 527 987 L 526 968 L 529 965 L 558 965 L 568 959 L 567 929 L 577 919 L 620 919 L 629 925 L 633 925 L 638 930 L 639 942 L 647 949 L 655 949 L 657 951 L 654 955 L 653 963 L 677 960 L 679 954 L 686 949 L 704 947 L 709 950 L 720 949 L 737 940 L 740 925 L 738 915 L 733 910 L 735 904 L 730 897 L 722 897 L 715 903 L 710 903 L 706 899 L 694 897 L 686 885 L 686 873 L 683 866 L 684 863 L 681 860 L 692 859 L 699 865 L 712 865 L 717 870 L 733 873 L 742 878 L 754 899 L 754 917 L 759 921 L 760 926 L 759 932 L 752 937 L 752 944 L 755 949 L 775 948 L 777 937 L 784 938 L 788 942 L 804 941 L 811 929 L 814 931 L 815 939 L 818 941 L 829 938 L 835 940 L 842 936 L 841 928 L 832 927 L 827 929 L 826 926 L 829 922 L 842 923 L 851 920 L 862 923 L 859 935 L 863 940 L 870 942 L 896 940 L 898 949 L 912 963 L 911 969 L 900 973 L 900 984 L 911 981 L 915 977 L 917 980 L 928 980 L 930 982 L 945 979 L 971 980 L 976 986 L 982 985 L 992 979 L 994 971 L 1001 963 L 1011 960 L 1015 954 L 1020 951 L 1039 950 L 1059 954 L 1061 960 L 1064 961 L 1066 975 L 1079 984 L 1087 986 L 1095 996 L 1104 996 L 1103 982 L 1114 979 L 1118 990 L 1129 988 L 1134 990 L 1140 1000 L 1140 1008 L 1145 1010 L 1152 1009 L 1164 1000 L 1161 989 L 1153 982 L 1147 970 L 1139 967 L 1126 957 L 1113 957 L 1107 944 L 1099 944 L 1095 939 L 1088 939 L 1079 921 L 1071 916 L 1068 901 L 1061 902 L 1060 892 L 1064 891 L 1073 899 L 1082 899 L 1086 905 L 1093 907 L 1096 911 L 1106 913 L 1112 920 L 1121 922 L 1127 929 L 1132 927 L 1137 929 L 1137 935 L 1143 936 L 1154 947 L 1154 951 L 1163 952 L 1165 946 L 1170 943 L 1174 925 L 1178 921 L 1178 915 L 1168 907 L 1168 899 L 1165 893 L 1157 890 L 1154 891 L 1148 881 L 1145 881 L 1144 877 L 1141 876 L 1142 869 L 1132 868 L 1125 862 L 1114 860 L 1110 853 L 1099 853 L 1093 846 L 1087 843 L 1083 844 L 1078 837 L 1063 835 L 1057 826 L 1034 821 L 1029 815 L 1021 815 L 1015 811 L 1010 811 L 1008 807 L 973 807 L 971 809 L 961 807 L 957 810 L 942 813 L 929 820 L 928 823 L 923 822 L 917 827 L 912 827 L 904 836 L 891 840 L 887 847 L 878 847 L 872 855 L 866 853 L 864 856 L 856 855 L 852 859 L 843 855 L 840 849 L 817 847 L 818 841 L 821 838 L 820 833 L 826 831 L 825 815 L 827 814 L 824 811 L 824 803 L 813 804 L 809 800 L 802 801 L 800 806 L 795 807 L 784 805 L 769 807 L 762 802 L 742 805 L 722 803 L 718 805 L 707 804 L 704 807 L 632 809 L 626 813 L 618 813 L 614 809 L 605 809 L 603 807 L 574 807 L 571 804 L 568 807 L 559 804 L 542 807 L 536 803 L 527 802 Z
M 663 945 L 664 949 L 659 952 L 657 949 Z
M 965 894 L 972 897 L 972 900 L 968 903 L 963 900 Z
M 916 889 L 930 889 L 931 892 L 923 893 L 908 906 L 909 922 L 913 925 L 916 935 L 922 939 L 922 942 L 923 939 L 926 942 L 938 942 L 941 949 L 940 955 L 935 960 L 923 953 L 919 948 L 919 944 L 907 932 L 899 932 L 891 922 L 891 912 L 894 908 L 898 907 L 900 899 L 913 894 Z
M 587 873 L 592 876 L 589 880 L 585 879 Z
M 565 835 L 570 837 L 573 846 L 570 864 L 568 861 L 563 862 L 562 857 L 558 855 L 557 846 Z
M 1391 776 L 1376 773 L 1371 777 L 1365 777 L 1357 785 L 1341 785 L 1329 778 L 1317 778 L 1313 783 L 1299 780 L 1277 780 L 1264 783 L 1237 782 L 1232 785 L 1206 785 L 1200 797 L 1201 800 L 1193 806 L 1188 804 L 1188 791 L 1186 789 L 1169 789 L 1164 795 L 1165 810 L 1174 816 L 1174 819 L 1184 817 L 1191 824 L 1195 832 L 1192 833 L 1189 842 L 1189 851 L 1192 854 L 1207 851 L 1209 860 L 1207 865 L 1202 865 L 1196 871 L 1190 873 L 1188 878 L 1181 883 L 1178 889 L 1178 898 L 1193 911 L 1206 912 L 1212 933 L 1219 933 L 1220 935 L 1221 933 L 1227 933 L 1228 935 L 1229 933 L 1234 935 L 1239 932 L 1244 933 L 1249 926 L 1262 933 L 1267 932 L 1272 935 L 1277 932 L 1302 935 L 1305 929 L 1321 925 L 1323 921 L 1329 918 L 1333 918 L 1338 924 L 1348 923 L 1350 912 L 1354 911 L 1357 905 L 1363 901 L 1375 903 L 1379 907 L 1380 905 L 1389 905 L 1394 895 L 1393 860 L 1396 859 L 1396 851 L 1393 846 L 1394 787 Z
M 1227 865 L 1231 864 L 1240 869 L 1232 871 Z
M 849 804 L 884 807 L 901 802 L 907 797 L 914 785 L 922 785 L 929 777 L 934 779 L 936 777 L 938 779 L 945 778 L 950 773 L 965 773 L 971 780 L 1003 779 L 1009 770 L 1016 771 L 1020 768 L 1028 775 L 1028 781 L 1032 786 L 1039 789 L 1039 796 L 1045 804 L 1062 807 L 1090 802 L 1092 806 L 1099 810 L 1117 813 L 1121 824 L 1131 825 L 1133 828 L 1146 829 L 1155 812 L 1156 795 L 1151 787 L 1137 784 L 1137 780 L 1128 780 L 1126 777 L 1121 776 L 1120 773 L 1111 772 L 1104 767 L 1096 767 L 1094 763 L 1075 763 L 1042 755 L 1032 745 L 1025 746 L 1007 740 L 994 745 L 990 743 L 989 745 L 987 743 L 986 745 L 978 745 L 977 743 L 946 745 L 942 741 L 911 740 L 894 748 L 893 755 L 888 756 L 886 754 L 870 767 L 858 781 L 857 795 L 852 795 Z"/>
<path fill="#1f1b1b" fill-rule="evenodd" d="M 918 940 L 924 954 L 932 958 L 937 956 L 939 950 L 933 943 L 924 943 Z
M 922 890 L 912 896 L 910 894 L 902 898 L 900 907 L 892 913 L 892 922 L 895 923 L 900 931 L 908 931 L 913 937 L 915 934 L 913 933 L 912 925 L 906 919 L 906 913 L 910 903 L 920 896 Z
M 565 836 L 558 848 L 564 860 L 569 861 L 571 859 L 569 838 Z
M 530 791 L 532 801 L 542 806 L 551 803 L 603 806 L 614 808 L 618 812 L 626 812 L 630 808 L 703 806 L 706 803 L 720 804 L 721 802 L 744 804 L 749 801 L 762 801 L 769 806 L 783 803 L 789 806 L 797 806 L 802 800 L 811 800 L 814 803 L 823 801 L 827 806 L 826 814 L 829 817 L 829 827 L 819 841 L 821 847 L 840 848 L 847 857 L 851 856 L 852 858 L 853 855 L 856 856 L 862 852 L 872 854 L 878 846 L 886 845 L 890 842 L 890 839 L 896 838 L 900 834 L 905 834 L 913 825 L 919 826 L 922 821 L 924 822 L 939 813 L 953 810 L 959 806 L 1008 806 L 1016 812 L 1028 813 L 1035 820 L 1055 824 L 1062 830 L 1063 834 L 1078 836 L 1082 842 L 1096 846 L 1101 852 L 1110 852 L 1115 858 L 1127 862 L 1134 868 L 1142 868 L 1145 879 L 1152 885 L 1152 888 L 1165 892 L 1169 896 L 1171 909 L 1175 908 L 1178 913 L 1179 921 L 1174 929 L 1174 939 L 1170 945 L 1166 946 L 1166 950 L 1163 953 L 1154 952 L 1142 937 L 1135 934 L 1135 930 L 1125 930 L 1120 923 L 1112 921 L 1105 914 L 1099 914 L 1093 908 L 1088 908 L 1082 900 L 1073 901 L 1063 893 L 1061 899 L 1070 903 L 1073 915 L 1079 919 L 1081 925 L 1088 931 L 1087 933 L 1090 938 L 1096 938 L 1098 942 L 1107 942 L 1113 955 L 1117 957 L 1118 955 L 1127 956 L 1136 961 L 1141 967 L 1146 968 L 1147 971 L 1148 969 L 1150 970 L 1154 982 L 1160 988 L 1163 988 L 1166 995 L 1164 1004 L 1157 1005 L 1154 1009 L 1145 1012 L 1139 1010 L 1139 1000 L 1135 997 L 1132 990 L 1118 991 L 1111 981 L 1107 981 L 1105 996 L 1092 996 L 1086 987 L 1075 983 L 1065 976 L 1060 956 L 1038 951 L 1034 953 L 1022 952 L 1015 955 L 1012 961 L 1000 965 L 992 980 L 978 987 L 975 987 L 968 981 L 959 979 L 932 983 L 918 980 L 904 985 L 895 985 L 894 982 L 899 978 L 899 973 L 909 965 L 908 961 L 895 948 L 893 940 L 880 943 L 863 941 L 858 935 L 861 924 L 851 921 L 844 924 L 828 924 L 838 928 L 841 927 L 844 931 L 843 937 L 835 941 L 815 941 L 812 931 L 804 942 L 786 943 L 783 939 L 778 938 L 775 949 L 753 950 L 750 947 L 751 937 L 759 931 L 758 921 L 754 919 L 753 899 L 749 896 L 750 894 L 741 878 L 731 873 L 716 871 L 710 866 L 698 866 L 692 860 L 688 860 L 684 866 L 687 871 L 686 882 L 694 896 L 702 896 L 710 902 L 715 901 L 720 896 L 730 896 L 736 903 L 736 912 L 741 920 L 741 934 L 739 939 L 727 949 L 724 948 L 712 952 L 704 948 L 687 950 L 676 962 L 652 964 L 651 962 L 654 958 L 652 955 L 653 951 L 647 950 L 637 941 L 638 934 L 632 926 L 628 926 L 623 921 L 615 919 L 577 920 L 577 923 L 569 929 L 569 959 L 566 963 L 559 966 L 529 966 L 527 970 L 526 980 L 530 990 L 534 982 L 546 982 L 549 985 L 548 988 L 550 988 L 552 981 L 558 978 L 601 977 L 605 980 L 610 980 L 612 978 L 623 978 L 624 976 L 675 975 L 686 979 L 686 989 L 691 989 L 696 985 L 697 989 L 711 991 L 717 996 L 718 994 L 724 995 L 728 991 L 734 992 L 737 996 L 744 996 L 748 1013 L 752 1015 L 754 1022 L 759 1023 L 762 1019 L 771 1021 L 765 1013 L 769 1002 L 786 1000 L 791 1009 L 791 1017 L 788 1021 L 778 1021 L 778 1024 L 785 1028 L 796 1030 L 797 1039 L 794 1042 L 805 1053 L 810 1055 L 812 1060 L 816 1060 L 823 1067 L 830 1064 L 835 1066 L 842 1064 L 847 1051 L 870 1048 L 874 1050 L 875 1059 L 873 1062 L 876 1066 L 877 1076 L 882 1079 L 884 1084 L 892 1084 L 897 1088 L 908 1088 L 908 1084 L 911 1081 L 921 1081 L 930 1084 L 936 1094 L 944 1094 L 951 1099 L 958 1099 L 966 1104 L 967 1113 L 965 1115 L 971 1115 L 974 1118 L 980 1117 L 981 1119 L 988 1117 L 995 1124 L 1002 1120 L 1014 1121 L 1024 1118 L 1034 1124 L 1044 1126 L 1047 1130 L 1062 1130 L 1070 1122 L 1079 1117 L 1084 1117 L 1091 1107 L 1089 1105 L 1091 1097 L 1098 1091 L 1101 1091 L 1104 1086 L 1110 1084 L 1115 1086 L 1118 1084 L 1118 1081 L 1124 1077 L 1124 1068 L 1131 1064 L 1131 1057 L 1137 1051 L 1141 1051 L 1150 1042 L 1153 1042 L 1159 1033 L 1164 1038 L 1164 1035 L 1175 1027 L 1177 1019 L 1186 1009 L 1184 1008 L 1185 998 L 1191 997 L 1195 1000 L 1198 998 L 1210 998 L 1230 978 L 1240 972 L 1280 972 L 1284 978 L 1305 978 L 1306 976 L 1314 978 L 1325 978 L 1327 976 L 1333 978 L 1375 978 L 1377 976 L 1388 978 L 1393 976 L 1393 973 L 1398 969 L 1395 963 L 1395 947 L 1398 942 L 1393 940 L 1395 936 L 1393 931 L 1395 915 L 1391 915 L 1374 905 L 1364 902 L 1353 913 L 1352 919 L 1348 924 L 1339 926 L 1331 919 L 1325 921 L 1322 926 L 1308 930 L 1302 936 L 1298 934 L 1294 936 L 1287 933 L 1279 933 L 1272 936 L 1257 932 L 1250 927 L 1244 934 L 1240 932 L 1234 936 L 1213 935 L 1210 931 L 1210 924 L 1207 922 L 1207 916 L 1189 910 L 1177 898 L 1177 889 L 1180 882 L 1187 878 L 1190 872 L 1202 863 L 1205 863 L 1208 856 L 1207 853 L 1192 855 L 1188 852 L 1188 841 L 1191 837 L 1190 834 L 1194 831 L 1183 818 L 1172 820 L 1170 814 L 1164 809 L 1164 802 L 1162 800 L 1164 793 L 1169 788 L 1188 788 L 1190 794 L 1188 806 L 1192 806 L 1207 783 L 1229 784 L 1232 781 L 1264 782 L 1276 778 L 1278 780 L 1299 779 L 1312 782 L 1317 777 L 1330 777 L 1335 782 L 1337 781 L 1341 784 L 1357 784 L 1364 776 L 1372 773 L 1389 773 L 1391 768 L 1388 769 L 1383 765 L 1378 769 L 1370 771 L 1331 771 L 1330 773 L 1328 771 L 1316 771 L 1312 776 L 1300 776 L 1298 774 L 1297 776 L 1286 778 L 1203 778 L 1195 774 L 1189 778 L 1148 778 L 1129 771 L 1124 774 L 1130 778 L 1138 779 L 1141 784 L 1153 786 L 1157 793 L 1156 814 L 1148 827 L 1142 831 L 1135 831 L 1130 826 L 1121 825 L 1115 813 L 1108 814 L 1103 811 L 1096 811 L 1088 803 L 1068 807 L 1047 806 L 1040 801 L 1037 789 L 1025 781 L 1025 775 L 1019 770 L 1016 773 L 1010 772 L 1006 774 L 1006 777 L 1000 781 L 971 781 L 965 774 L 951 774 L 948 778 L 940 778 L 939 780 L 929 778 L 928 783 L 926 782 L 923 786 L 915 787 L 902 804 L 890 805 L 886 808 L 875 809 L 863 805 L 850 806 L 847 803 L 850 798 L 849 795 L 856 794 L 857 780 L 864 774 L 867 768 L 886 753 L 888 749 L 911 739 L 962 740 L 964 742 L 992 743 L 1012 739 L 1021 744 L 1033 744 L 1042 753 L 1054 758 L 1069 759 L 1076 762 L 1093 763 L 1096 761 L 1091 756 L 1080 756 L 1073 749 L 1057 749 L 1054 745 L 1038 745 L 1035 742 L 1023 743 L 1016 738 L 1000 738 L 999 736 L 963 736 L 961 733 L 936 733 L 931 736 L 907 735 L 896 740 L 889 739 L 884 745 L 880 745 L 867 756 L 865 763 L 860 766 L 855 765 L 851 772 L 845 776 L 830 780 L 818 780 L 817 782 L 805 782 L 804 784 L 792 784 L 790 787 L 748 789 L 746 791 L 741 789 L 735 791 L 720 791 L 718 789 L 715 791 L 690 791 L 689 793 L 679 791 L 672 795 L 590 795 L 587 792 L 535 793 Z
M 953 1075 L 960 1074 L 969 1083 L 968 1097 L 958 1099 L 949 1096 L 948 1083 Z
M 1006 1052 L 1014 1050 L 1020 1060 L 1028 1062 L 1037 1072 L 1040 1072 L 1046 1064 L 1056 1064 L 1057 1072 L 1066 1081 L 1069 1096 L 1064 1102 L 1053 1104 L 1047 1102 L 1034 1092 L 1009 1097 L 1004 1095 L 1002 1067 L 1003 1057 Z
M 902 1030 L 912 1030 L 916 1034 L 917 1047 L 915 1049 L 904 1051 L 897 1047 L 897 1035 Z
M 989 1019 L 995 1026 L 1000 1028 L 1002 1038 L 998 1044 L 998 1051 L 991 1060 L 990 1067 L 978 1071 L 974 1067 L 977 1057 L 976 1041 L 979 1034 L 977 1029 L 981 1022 Z
M 952 999 L 954 1010 L 948 1020 L 943 1020 L 938 1024 L 934 1022 L 930 1026 L 920 1026 L 917 1020 L 911 1016 L 912 1009 L 916 1004 L 923 1004 L 924 1006 L 929 1004 L 933 999 L 932 995 L 935 993 L 946 994 Z
M 1001 989 L 1019 980 L 1036 981 L 1038 986 L 1036 988 L 1037 993 L 1033 999 L 1034 1003 L 1036 1004 L 1040 1000 L 1048 1000 L 1051 1014 L 1054 1018 L 1067 1022 L 1070 1028 L 1085 1031 L 1093 1030 L 1096 1036 L 1105 1039 L 1107 1048 L 1117 1050 L 1119 1062 L 1112 1067 L 1108 1066 L 1103 1069 L 1097 1069 L 1081 1062 L 1077 1056 L 1069 1051 L 1055 1051 L 1045 1041 L 1045 1038 L 1020 1034 L 1016 1029 L 1016 1025 L 1010 1023 L 1003 1007 L 998 1004 Z
M 835 978 L 844 978 L 846 980 L 847 988 L 844 992 L 835 993 L 832 991 Z
M 767 982 L 770 980 L 769 977 L 773 971 L 786 968 L 788 970 L 793 969 L 798 972 L 803 971 L 805 975 L 814 976 L 817 981 L 817 991 L 802 995 L 788 994 L 785 988 L 772 988 Z
M 787 947 L 798 944 L 812 950 L 816 946 L 822 948 L 836 946 L 840 950 L 847 950 L 855 954 L 857 957 L 872 957 L 885 963 L 888 962 L 895 971 L 894 975 L 889 979 L 880 979 L 883 993 L 882 1004 L 863 1007 L 856 1002 L 852 995 L 851 986 L 854 979 L 859 978 L 860 974 L 849 969 L 846 972 L 834 974 L 827 968 L 813 970 L 805 959 L 788 959 Z
M 600 946 L 608 942 L 621 942 L 622 946 L 628 947 L 633 951 L 633 965 L 628 970 L 611 970 L 600 958 Z
M 921 238 L 853 244 L 783 257 L 712 278 L 657 300 L 593 333 L 537 369 L 479 415 L 425 468 L 380 522 L 347 570 L 322 613 L 286 691 L 264 757 L 250 817 L 240 893 L 238 964 L 242 1026 L 256 1109 L 270 1161 L 299 1238 L 331 1301 L 370 1362 L 411 1414 L 465 1470 L 517 1514 L 580 1557 L 649 1594 L 699 1615 L 764 1636 L 828 1650 L 905 1659 L 971 1660 L 1044 1654 L 1106 1643 L 1183 1621 L 1243 1597 L 1312 1561 L 1368 1524 L 1426 1477 L 1477 1426 L 1525 1367 L 1560 1314 L 1595 1248 L 1617 1195 L 1639 1124 L 1653 1054 L 1660 980 L 1660 917 L 1651 831 L 1641 782 L 1628 735 L 1614 695 L 1594 648 L 1576 612 L 1549 566 L 1502 501 L 1468 462 L 1435 429 L 1397 396 L 1350 361 L 1304 332 L 1293 332 L 1346 364 L 1404 408 L 1466 467 L 1511 520 L 1551 578 L 1588 646 L 1615 711 L 1640 798 L 1652 872 L 1656 934 L 1654 1004 L 1642 1090 L 1623 1163 L 1598 1230 L 1568 1291 L 1522 1363 L 1474 1422 L 1422 1474 L 1356 1527 L 1301 1562 L 1234 1596 L 1159 1624 L 1098 1640 L 1022 1652 L 981 1655 L 917 1655 L 867 1651 L 800 1640 L 727 1620 L 658 1593 L 589 1557 L 522 1512 L 470 1468 L 407 1402 L 368 1351 L 337 1302 L 312 1255 L 288 1199 L 273 1155 L 260 1106 L 251 1059 L 243 978 L 244 902 L 248 860 L 258 801 L 270 753 L 288 699 L 322 623 L 354 568 L 406 497 L 456 443 L 513 393 L 574 350 L 655 306 L 709 284 L 782 262 L 857 248 L 912 243 L 1002 244 L 1074 253 L 1150 271 L 1213 293 L 1281 325 L 1276 317 L 1223 292 L 1172 273 L 1124 259 L 1072 248 L 1030 242 L 978 238 Z
M 912 2 L 820 10 L 733 26 L 637 54 L 559 85 L 479 126 L 394 181 L 326 235 L 254 305 L 202 366 L 149 441 L 105 518 L 66 605 L 38 688 L 16 784 L 4 882 L 2 976 L 10 1075 L 28 1172 L 57 1269 L 85 1338 L 120 1408 L 174 1494 L 231 1567 L 303 1642 L 370 1699 L 449 1754 L 530 1799 L 602 1831 L 695 1862 L 789 1883 L 880 1894 L 981 1896 L 1077 1888 L 1156 1874 L 1231 1854 L 1278 1838 L 1339 1813 L 1426 1768 L 1496 1723 L 1563 1671 L 1638 1600 L 1694 1535 L 1750 1456 L 1794 1379 L 1836 1284 L 1863 1201 L 1884 1106 L 1895 1010 L 1896 907 L 1889 825 L 1872 732 L 1843 633 L 1811 554 L 1773 480 L 1743 431 L 1711 385 L 1652 313 L 1585 246 L 1521 193 L 1453 146 L 1367 98 L 1276 59 L 1186 31 L 1099 13 L 1007 3 Z
M 902 7 L 996 7 L 1074 14 L 1162 30 L 1259 58 L 1350 95 L 1424 134 L 1463 158 L 1513 193 L 1580 248 L 1650 318 L 1705 385 L 1757 462 L 1802 546 L 1834 622 L 1862 711 L 1880 796 L 1891 899 L 1891 1000 L 1883 1082 L 1866 1171 L 1838 1265 L 1808 1339 L 1765 1422 L 1713 1502 L 1657 1572 L 1584 1646 L 1506 1710 L 1442 1753 L 1362 1797 L 1270 1836 L 1186 1862 L 1093 1881 L 993 1891 L 906 1891 L 852 1887 L 799 1880 L 705 1860 L 615 1831 L 545 1801 L 455 1752 L 374 1696 L 309 1641 L 247 1578 L 187 1504 L 158 1462 L 130 1416 L 91 1340 L 58 1258 L 33 1173 L 15 1078 L 7 988 L 8 891 L 19 793 L 36 713 L 67 615 L 97 545 L 144 458 L 192 387 L 253 313 L 330 238 L 402 181 L 471 136 L 559 90 L 645 56 L 736 30 L 825 14 Z"/>
</svg>